<svg class="blue-eyes" version="1.1" xmlns="http://www.w3.org/2000/svg" xmlns:xlink="http://www.w3.org/1999/xlink" x="0px" y="0px"
		 viewBox="0 0 338 500" style="enable-background:new 0 0 338 500;" xml:space="preserve">
	<style type="text/css" href="anim.css">
		.st0{fill:none;}
		.st1{fill:#A6B1B2;}
		.st2{fill:#849091;}
		.st3{fill:#EDEDED;}
		.st4{fill:#F4C9D7;}
		.st6{fill:#F286A8;}
		.st7{fill:#CCC1C5;}
	</style>
	<g id="body">
		<path class="st0" d="M114.1,468.5c0.6,2.7,4.5,4.3,7.7,7.1c3.7-2.8,7.9-4.4,9-7.1c1.4-3.4,1.2-18.9,0.1-40
			c-2.1-7.2-3.5-14.8-4.4-22.8C118.6,438.1,113.1,464,114.1,468.5z"/>
		<path class="st1" d="M333.6,414.1c0-9.2-1.4-18.1-3.8-26.4c-5.2-22.9-19-43.8-43.3-56.1c-86.1-43.4-80.4-110-88.7-177.4
			c-4.9-39.6-29.4-26.2-52.1,8c-8.6-0.5-19.8,0.6-19.9,3.4c-0.1,16.7-50.6,58.6-52.7,104.2c0,0.1,0,0.2,0,0.2
			c-2.5,44.8,31.7,172.6,22.1,196.6c-3.9,9.7-12.9,6.8-14.7,19.7c-1.8,12.6,26.8,16.3,39.7,8.3c11.5,8,40.8,4.3,41.2-8.3
			c0.4-12.9-9.1-10-11.3-19.7c-0.1-0.4-0.2-0.8-0.2-1.2c-8.8-10.5-15-23-19-36.9c1.1,21.1,1.3,36.5-0.1,40c-1.1,2.7-5.2,4.3-9,7.1
			c-3.2-2.8-7.1-4.4-7.7-7.1c-1-4.6,4.5-30.5,12.4-62.7c-2.3-20.8-0.6-43.9,4.6-68c13.4-62.5,64.6-86,92.7-53
			c42.3,49.9-19.4,62.4-26.5,97.9c-5.1,25.5-18.5,60.8,46.9,98.2c17.9,10.2,27.3,14.8,26.4,17c14.5-2,27-9.3,36.9-20.1
			C323.4,462.2,333.6,439.4,333.6,414.1z"/>
		<path class="st2" d="M197.8,154.2c-4.9-39.6-29.4-26.2-52.1,8c-8.6-0.5-19.8,0.6-19.9,3.4c0,11.1-22.5,33.5-38.1,60.6
			c15.8,6.2,35.8,9.8,60.9,9.8c23.5,0,42.6-3.2,57.9-8.7C202,203.9,200.8,179.1,197.8,154.2z"/>
	</g>
	<path id="tail" class="st3" d="M244.2,480.9c-65.4-37.4-52-72.7-46.9-98.2c7.1-35.5,68.9-48,26.5-97.9c-28.1-33.1-79.3-9.5-92.7,53
		c-5.2,24.1-6.9,47.2-4.6,68c0.9,7.9,2.3,15.6,4.4,22.8c4,14,10.3,26.5,19,36.9c18.6,22.3,48.6,35.5,91.9,34.7
		c18.8-0.3,28-0.3,28.8-2.3C271.4,495.8,262.1,491.2,244.2,480.9z"/>
	<g id="ears">
		<g>
			<path class="st1" d="M196.6,49.5c0,0,52.5-54.7,67.9-45.3c15.4,9.4-10.3,80.7-20.9,102.9C243.5,107.2,211.5,88,196.6,49.5z"/>
			<path class="st4" d="M234.2,100.4c8.8-19.2,30.3-72.4,20-78.6c-9.5-5.8-44,29.6-52.7,38.8C211.5,79.8,225.2,93.1,234.2,100.4z"/>
		</g>
		<g>
			<path class="st1" d="M100.7,49.5c0,0-52.5-54.7-67.9-45.3C17.4,13.6,43.1,85,53.7,107.2C53.7,107.2,85.8,88,100.7,49.5z"/>
			<path class="st4" d="M63.1,100.4c-8.8-19.2-30.3-72.4-20-78.6c9.5-5.8,44,29.6,52.7,38.8C85.8,79.8,72.1,93.1,63.1,100.4z"/>
		</g>
	</g>
	<path id="head" class="st1" d="M234,74.4C198.8,33.9,148.6,34,148.6,34s-50.2-0.1-85.4,40.4c-39.4,45.4-45.6,143.7,85.4,143.7
		C279.6,218.1,273.4,119.8,234,74.4z"/>
	<path class="eye-color" style="fill:#534239" d="M104.2,121.5c7,0,13,4.1,15.7,10.1c1-2.2,1.6-4.6,1.6-7.2c0-9.5-7.7-17.3-17.3-17.3s-17.3,7.7-17.3,17.3
				c0,2.6,0.6,5,1.6,7.2C91.2,125.6,97.2,121.5,104.2,121.5z"/>
	<path class="eye-color" id="eye-color" style="fill:#534239" d="M193.1,121.5c7,0,13,4.1,15.7,10.1c1-2.2,1.6-4.6,1.6-7.2c0-9.5-7.7-17.3-17.3-17.3s-17.3,7.7-17.3,17.3
				c0,2.6,0.6,5,1.6,7.2C180.1,125.6,186.1,121.5,193.1,121.5z"/>
	<path id="nose" class="st6" d="M162.7,163.8c-1.1-3.8-14.1-3.8-14.1-3.8l0,0l0,0l0,0l0,0c0,0-13,0-14.1,3.8c-1.1,3.8,3.4,4.1,7,6
		c3.6,1.9,2.8,6.6,7.1,6.6l0,0l0,0l0,0l0,0c4.3,0,3.4-4.7,7.1-6.6C159.3,167.8,163.8,167.6,162.7,163.8z"/>
	<g id="mo-r">
		<g>
			<ellipse class="st4" cx="165.7" cy="175.7" rx="2.3" ry="1.9"/>
			<ellipse class="st4" cx="172.6" cy="183.8" rx="2.3" ry="1.9"/>
			<ellipse class="st4" cx="178.5" cy="175.7" rx="2.3" ry="1.9"/>
		</g>
		<g>
			<g>
				<path class="st7" d="M166.7,176.3c36-19.1,81.4-23.2,121-17.1c0.8,0.1,1.1-1.1,0.3-1.2c-40-6.2-85.7-2-122,17.2
					C165.2,175.6,165.9,176.7,166.7,176.3L166.7,176.3z"/>
			</g>
			<g>
				<path class="st7" d="M179,176.7c33-11.9,75.5-3.2,108.1,4.2c0.8,0.2,1.1-1.1,0.3-1.2c-32.8-7.5-75.6-16.1-108.7-4.2
					C177.8,175.8,178.2,177,179,176.7L179,176.7z"/>
			</g>
			<g>
				<path class="st7" d="M172.6,184.6c35.6-2.6,73.2,11.5,103.4,28.9c0.7,0.4,1.3-0.7,0.6-1.1c-30.4-17.5-68.2-31.7-104.1-29.1
					C171.7,183.4,171.8,184.7,172.6,184.6L172.6,184.6z"/>
			</g>
		</g>
	</g>
	<path id="mouth" class="st4" d="M111.7,180.9c2.7,2.7,5.5,5.1,8.5,7.1c3,2,6,3.8,9.3,5.1c3.2,1.3,6.5,2.4,9.8,3
		c0.8,0.2,1.7,0.3,2.5,0.4l2.5,0.3c1.7,0,3.4,0.2,5.1,0.1c6.8-0.2,13.6-1.6,20.1-4.4c6.5-2.8,12.6-6.7,18.5-11.6
		c-3.1,7.1-8.7,13-15.4,17.3c-6.7,4.4-14.8,6.8-23,6.9c-1,0.1-2,0-3-0.1l-3-0.2l-3-0.5c-1-0.2-2-0.3-3-0.7l-2.9-0.9
		c-1-0.4-1.9-0.8-2.8-1.2c-0.9-0.4-1.9-0.8-2.7-1.3c-0.9-0.5-1.8-0.9-2.6-1.5c-3.4-2.1-6.4-4.9-9-7.9
		C115,187.9,112.9,184.6,111.7,180.9z"/>
	<g id="mo-l">
		<g>
			<ellipse class="st4" cx="130.2" cy="175.7" rx="2.3" ry="1.9"/>
			<ellipse class="st4" cx="123.2" cy="183.8" rx="2.3" ry="1.9"/>
			<ellipse class="st4" cx="117.3" cy="175.7" rx="2.3" ry="1.9"/>
		</g>
		<g>
			<g>
				<path class="st7" d="M129.2,176.3c-36-19.1-81.4-23.2-121-17.1c-0.8,0.1-1.1-1.1-0.3-1.2c40-6.2,85.7-2,122,17.2
					C130.6,175.6,129.9,176.7,129.2,176.3L129.2,176.3z"/>
			</g>
			<g>
				<path class="st7" d="M116.8,176.7c-33-11.9-75.5-3.2-108.1,4.2c-0.8,0.2-1.1-1.1-0.3-1.2c32.8-7.5,75.6-16.1,108.7-4.2
					C118,175.8,117.6,177,116.8,176.7L116.8,176.7z"/>
			</g>
			<g>
				<path class="st7" d="M123.2,184.6C87.6,182,50,196.1,19.8,213.5c-0.7,0.4-1.3-0.7-0.6-1.1c30.4-17.5,68.2-31.7,104.1-29.1
					C124.1,183.4,124.1,184.7,123.2,184.6L123.2,184.6z"/>
			</g>
		</g>
	</g>
</svg>
