<?xml-stylesheet type="text/css" href="anim.css"?>
<svg class="blue-eyes" xmlns="http://www.w3.org/2000/svg" width="326.2" height="497.1" viewBox="0 0 326.2 497.1">
  <title>cat2</title>
  <g id="Layer_1" data-name="Layer 1">
    <g id="body">
      <path d="M114.1,468.5c.6,2.7,4.5,4.3,7.7,7.1,3.7-2.8,7.9-4.4,9-7.1s1.2-18.9.1-40a135.4,135.4,0,0,1-4.4-22.8C118.6,438.1,113.1,464,114.1,468.5Z" transform="translate(-7.4 -3.1)" fill="none"/>
      <path d="M333.6,414.1a95.2,95.2,0,0,0-3.8-26.4c-5.2-22.9-19-43.8-43.3-56.1-86.1-43.4-80.4-110-88.7-177.4-4.9-39.6-29.4-26.2-52.1,8-8.6-.5-19.8.6-19.9,3.4-.1,16.7-50.6,58.6-52.7,104.2v.2c-2.5,44.8,31.7,172.6,22.1,196.6-3.9,9.7-12.9,6.8-14.7,19.7s26.8,16.3,39.7,8.3c11.5,8,40.8,4.3,41.2-8.3s-9.1-10-11.3-19.7a5,5,0,0,1-.2-1.2c-8.8-10.5-15-23-19-36.9,1.1,21.1,1.3,36.5-.1,40s-5.2,4.3-9,7.1c-3.2-2.8-7.1-4.4-7.7-7.1-1-4.6,4.5-30.5,12.4-62.7-2.3-20.8-.6-43.9,4.6-68,13.4-62.5,64.6-86,92.7-53,42.3,49.9-19.4,62.4-26.5,97.9-5.1,25.5-18.5,60.8,46.9,98.2,17.9,10.2,27.3,14.8,26.4,17,14.5-2,27-9.3,36.9-20.1C323.4,462.2,333.6,439.4,333.6,414.1Z" transform="translate(-7.4 -3.1)" fill="#a6b1b2"/>
      <path d="M197.8,154.2c-4.9-39.6-29.4-26.2-52.1,8-8.6-.5-19.8.6-19.9,3.4,0,11.1-22.5,33.5-38.1,60.6,15.8,6.2,35.8,9.8,60.9,9.8,23.5,0,42.6-3.2,57.9-8.7C202,203.9,200.8,179.1,197.8,154.2Z" transform="translate(-7.4 -3.1)" fill="#849091"/>
    </g>
    <path id="tail" d="M244.2,480.9c-65.4-37.4-52-72.7-46.9-98.2,7.1-35.5,68.9-48,26.5-97.9-28.1-33.1-79.3-9.5-92.7,53-5.2,24.1-6.9,47.2-4.6,68a137.3,137.3,0,0,0,4.4,22.8c4,14,10.3,26.5,19,36.9,18.6,22.3,48.6,35.5,91.9,34.7,18.8-.3,28-.3,28.8-2.3S262.1,491.2,244.2,480.9Z" transform="translate(-7.4 -3.1)" fill="#ededed"/>
    <g id="ears">
      <g>
        <path d="M196.6,49.5S249.1-5.2,264.5,4.2s-10.3,80.7-20.9,102.9C243.5,107.2,211.5,88,196.6,49.5Z" transform="translate(-7.4 -3.1)" fill="#a6b1b2"/>
        <path d="M234.2,100.4c8.8-19.2,30.3-72.4,20-78.6s-44,29.6-52.7,38.8A129.1,129.1,0,0,0,234.2,100.4Z" transform="translate(-7.4 -3.1)" fill="#f4c9d7"/>
      </g>
      <g>
        <path d="M100.7,49.5S48.2-5.2,32.8,4.2,43.1,85,53.7,107.2C53.7,107.2,85.8,88,100.7,49.5Z" transform="translate(-7.4 -3.1)" fill="#a6b1b2"/>
        <path d="M63.1,100.4C54.3,81.2,32.8,28,43.1,21.8s44,29.6,52.7,38.8A129.1,129.1,0,0,1,63.1,100.4Z" transform="translate(-7.4 -3.1)" fill="#f4c9d7"/>
      </g>
    </g>
    <path id="head" d="M234,74.4C198.8,33.9,148.6,34,148.6,34s-50.2-.1-85.4,40.4c-39.4,45.4-45.6,143.7,85.4,143.7S273.4,119.8,234,74.4Z" transform="translate(-7.4 -3.1)" fill="#a6b1b2"/>
    <path id="nose" d="M162.7,163.8c-1.1-3.8-14.1-3.8-14.1-3.8h0s-13,0-14.1,3.8,3.4,4.1,7,6,2.8,6.6,7.1,6.6h0c4.3,0,3.4-4.7,7.1-6.6S163.8,167.6,162.7,163.8Z" transform="translate(-7.4 -3.1)" fill="#f286a8"/>
    <g id="mo-r">
      <g>
        <ellipse cx="158.3" cy="172.6" rx="2.3" ry="1.9" fill="#f4c9d7"/>
        <ellipse cx="165.2" cy="180.7" rx="2.3" ry="1.9" fill="#f4c9d7"/>
        <ellipse cx="171.1" cy="172.6" rx="2.3" ry="1.9" fill="#f4c9d7"/>
      </g>
      <g>
        <path d="M166.7,176.3c36-19.1,81.4-23.2,121-17.1.8.1,1.1-1.1.3-1.2-40-6.2-85.7-2-122,17.2-.8.4-.1,1.5.7,1.1Z" transform="translate(-7.4 -3.1)" fill="#ccc1c5"/>
        <path d="M179,176.7c33-11.9,75.5-3.2,108.1,4.2.8.2,1.1-1.1.3-1.2-32.8-7.5-75.6-16.1-108.7-4.2a.6.6,0,1,0,.3,1.2Z" transform="translate(-7.4 -3.1)" fill="#ccc1c5"/>
        <path d="M172.6,184.6c35.6-2.6,73.2,11.5,103.4,28.9.7.4,1.3-.7.6-1.1-30.4-17.5-68.2-31.7-104.1-29.1-.8.1-.7,1.4.1,1.3Z" transform="translate(-7.4 -3.1)" fill="#ccc1c5"/>
      </g>
    </g>
    <path id="mouth" d="M111.7,180.9a56.2,56.2,0,0,0,8.5,7.1,49.6,49.6,0,0,0,9.3,5.1,50.2,50.2,0,0,0,9.8,3l2.5.4,2.5.3c1.7,0,3.4.2,5.1.1a54.7,54.7,0,0,0,20.1-4.4A76.1,76.1,0,0,0,188,180.9c-3.1,7.1-8.7,13-15.4,17.3a43.1,43.1,0,0,1-23,6.9,15.1,15.1,0,0,1-3-.1l-3-.2-3-.5a16.3,16.3,0,0,1-3-.7l-2.9-.9-2.8-1.2a22.4,22.4,0,0,1-2.7-1.3,22,22,0,0,1-2.6-1.5,39.9,39.9,0,0,1-9-7.9A27.8,27.8,0,0,1,111.7,180.9Z" transform="translate(-7.4 -3.1)" fill="#f4c9d7"/>
    <g id="mo-l">
      <g>
        <ellipse cx="122.8" cy="172.6" rx="2.3" ry="1.9" fill="#f4c9d7"/>
        <ellipse cx="115.8" cy="180.7" rx="2.3" ry="1.9" fill="#f4c9d7"/>
        <ellipse cx="109.9" cy="172.6" rx="2.3" ry="1.9" fill="#f4c9d7"/>
      </g>
      <g>
        <path d="M129.2,176.3c-36-19.1-81.4-23.2-121-17.1-.8.1-1.1-1.1-.3-1.2,40-6.2,85.7-2,122,17.2.7.4,0,1.5-.7,1.1Z" transform="translate(-7.4 -3.1)" fill="#ccc1c5"/>
        <path d="M116.8,176.7c-33-11.9-75.5-3.2-108.1,4.2-.8.2-1.1-1.1-.3-1.2,32.8-7.5,75.6-16.1,108.7-4.2a.6.6,0,1,1-.3,1.2Z" transform="translate(-7.4 -3.1)" fill="#ccc1c5"/>
        <path d="M123.2,184.6C87.6,182,50,196.1,19.8,213.5c-.7.4-1.3-.7-.6-1.1,30.4-17.5,68.2-31.7,104.1-29.1.8.1.8,1.4-.1,1.3Z" transform="translate(-7.4 -3.1)" fill="#ccc1c5"/>
      </g>
    </g>
  </g>
  <g id="eye-color">
    <path id="eye-color-2" class="eye-color" data-name="eye-color" d="M104.2,121.5a17.1,17.1,0,0,1,15.7,10.1,17.3,17.3,0,1,0-31.4,0A17.1,17.1,0,0,1,104.2,121.5Z" transform="translate(-7.4 -3.1)" fill="#534239"/>
  </g>
  <g class="eye-color" data-name="eye-color">
    <path id="eye-color-4" data-name="eye-color" d="M193.1,121.5a17.1,17.1,0,0,1,15.7,10.1,17.3,17.3,0,1,0-31.4,0A17.1,17.1,0,0,1,193.1,121.5Z" transform="translate(-7.4 -3.1)" fill="#534239"/>
  </g>
</svg>
