<svg id="Layer_1" data-name="Layer 1" xmlns="http://www.w3.org/2000/svg" width="326.2" height="497.1" viewBox="0 0 326.2 497.1">
  <title>cat2</title>
  <g id="body">
    <g id="body-2">
      <path d="M106.7,465.4c.6,2.7,4.5,4.3,7.7,7.1,3.7-2.8,7.9-4.4,9-7.1s1.2-18.9.1-40a137,137,0,0,1-4.4-22.8C111.2,435,105.7,460.9,106.7,465.4Z" transform="translate(0 0)" fill="none"/>
      <path d="M326.2,411a94.7,94.7,0,0,0-3.8-26.4c-5.2-22.9-19-43.8-43.3-56.1-86.1-43.4-80.4-110-88.7-177.4-4.9-39.6-29.4-26.2-52.1,8-8.6-.5-19.8.6-19.9,3.4-.1,16.7-50.6,58.6-52.7,104.2v.2c-2.5,44.8,31.7,172.6,22.1,196.6-3.9,9.7-12.9,6.8-14.7,19.7s26.8,16.3,39.7,8.3c11.5,8,40.8,4.3,41.2-8.3s-9.1-10-11.3-19.7a5,5,0,0,1-.2-1.2c-8.8-10.5-15-23-19-36.9,1.1,21.1,1.3,36.5-.1,40s-5.2,4.3-9,7.1c-3.2-2.8-7.1-4.4-7.7-7.1-1-4.6,4.5-30.5,12.4-62.7-2.3-20.8-10.8,46,54.6,83.4,17.9,10.2,90.4,6.5,89.5,8.7,14.5-2,27-9.3,36.9-20.1C316,459.1,326.2,436.3,326.2,411Z" transform="translate(0 0)" fill="#a6b1b2"/>
      <path d="M190.4,151.1c-4.9-39.6-29.4-26.2-52.1,8-8.6-.5-19.8.6-19.9,3.4,0,11.1-22.5,33.5-38.1,60.6,15.8,6.2,35.8,9.8,60.9,9.8,23.5,0,42.6-3.2,57.9-8.7C194.6,200.8,193.4,176,190.4,151.1Z" transform="translate(0 0)" fill="#849091"/>
    </g>
    <path id="tail" d="M236.8,477.8c-65.4-37.4-52-72.7-46.9-98.2,7.1-35.5,68.9-48,26.5-97.9-28.1-33.1-79.3-9.5-92.7,53-5.2,24.1-6.9,47.2-4.6,68a137,137,0,0,0,4.4,22.8c4,14,10.3,26.5,19,36.9,18.6,22.3,48.6,35.5,91.9,34.7,18.8-.3,28-.3,28.8-2.3S254.7,488.1,236.8,477.8Z" transform="translate(0 0)" fill="#ededed"/>
  </g>
  <g id="head">
    <path id="head-2" d="M226.6,71.3c-35.2-40.5-85.4-40.4-85.4-40.4S91,30.8,55.8,71.3C16.4,116.7,10.2,215,141.2,215S266,116.7,226.6,71.3Z" transform="translate(0 0)" fill="#a6b1b2"/>
  </g>
  <g id="nose">
    <path id="nose-2" d="M155.3,160.7c-1.1-3.8-14.1-3.8-14.1-3.8h0s-13,0-14.1,3.8,3.4,4.1,7,6,2.8,6.6,7.1,6.6h0c4.3,0,3.4-4.7,7.1-6.6S156.4,164.5,155.3,160.7Z" transform="translate(0 0)" fill="#f286a8"/>
  </g>
  <g id="r-mo">
    <g id="mo-r">
      <g>
        <ellipse cx="158.3" cy="172.6" rx="2.3" ry="1.9" fill="#f4c9d7"/>
        <ellipse cx="165.2" cy="180.7" rx="2.3" ry="1.9" fill="#f4c9d7"/>
        <ellipse cx="171.1" cy="172.6" rx="2.3" ry="1.9" fill="#f4c9d7"/>
      </g>
      <g>
        <path d="M159.3,173.2c36-19.1,81.4-23.2,121-17.1.8.1,1.1-1.1.3-1.2-40-6.2-85.7-2-122,17.2C157.8,172.5,158.5,173.6,159.3,173.2Z" transform="translate(0 0)" fill="#ccc1c5"/>
        <path d="M171.6,173.6c33-11.9,75.5-3.2,108.1,4.2.8.2,1.1-1.1.3-1.2-32.8-7.5-75.6-16.1-108.7-4.2a.6.6,0,0,0-.4.8.5.5,0,0,0,.7.4Z" transform="translate(0 0)" fill="#ccc1c5"/>
        <path d="M165.2,181.5c35.6-2.6,73.2,11.5,103.4,28.9.7.4,1.3-.7.6-1.1-30.4-17.5-68.2-31.7-104.1-29.1-.8.1-.7,1.4.1,1.3Z" transform="translate(0 0)" fill="#ccc1c5"/>
      </g>
    </g>
  </g>
  <g id="l-mo">
    <g id="mo-l">
      <g>
        <ellipse cx="122.8" cy="172.6" rx="2.3" ry="1.9" fill="#f4c9d7"/>
        <ellipse cx="115.8" cy="180.7" rx="2.3" ry="1.9" fill="#f4c9d7"/>
        <ellipse cx="109.9" cy="172.6" rx="2.3" ry="1.9" fill="#f4c9d7"/>
      </g>
      <g>
        <path d="M121.8,173.2c-36-19.1-81.4-23.2-121-17.1-.8.1-1.1-1.1-.3-1.2,40-6.2,85.7-2,122,17.2C123.2,172.5,122.5,173.6,121.8,173.2Z" transform="translate(0 0)" fill="#ccc1c5"/>
        <path d="M109.4,173.6c-33-11.9-75.5-3.2-108.1,4.2-.8.2-1.1-1.1-.3-1.2,32.8-7.5,75.6-16.1,108.7-4.2a.6.6,0,0,1,.4.8.5.5,0,0,1-.7.4Z" transform="translate(0 0)" fill="#ccc1c5"/>
        <path d="M115.8,181.5C80.2,178.9,42.6,193,12.4,210.4c-.7.4-1.3-.7-.6-1.1,30.4-17.5,68.2-31.7,104.1-29.1.8.1.8,1.4-.1,1.3Z" transform="translate(0 0)" fill="#ccc1c5"/>
      </g>
    </g>
  </g>
  <g id="ears">
    <g id="ears-2">
      <g>
        <path d="M189.2,46.4S241.7-8.3,257.1,1.1,246.8,81.8,236.2,104C236.1,104.1,204.1,84.9,189.2,46.4Z" transform="translate(0 0)" fill="#a6b1b2"/>
        <path d="M226.8,97.3c8.8-19.2,30.3-72.4,20-78.6s-44,29.6-52.7,38.8A128.3,128.3,0,0,0,226.8,97.3Z" transform="translate(0 0)" fill="#f4c9d7"/>
      </g>
      <g>
        <path d="M93.3,46.4S40.8-8.3,25.4,1.1s10.3,80.8,20.9,103C46.3,104.1,78.4,84.9,93.3,46.4Z" transform="translate(0 0)" fill="#a6b1b2"/>
        <path d="M55.7,97.3c-8.8-19.2-30.3-72.4-20-78.6s44,29.6,52.7,38.8A128.3,128.3,0,0,1,55.7,97.3Z" transform="translate(0 0)" fill="#f4c9d7"/>
      </g>
    </g>
  </g>
  <g id="mouth">
    <path id="mouth-2" d="M104.3,177.8a58.2,58.2,0,0,0,8.5,7.1,52.3,52.3,0,0,0,9.3,5.1,55.5,55.5,0,0,0,9.8,3l2.5.4,2.5.3c1.7,0,3.4.2,5.1.1a55.8,55.8,0,0,0,20.1-4.4,78.9,78.9,0,0,0,18.5-11.6c-3.1,7.1-8.7,13-15.4,17.3a43.6,43.6,0,0,1-23,6.9h-3l-3-.2-3-.5-3-.7-2.9-.9-2.8-1.2-2.7-1.3-2.6-1.5a39.9,39.9,0,0,1-9-7.9A28.2,28.2,0,0,1,104.3,177.8Z" transform="translate(0 0)" fill="#f4c9d7"/>
  </g>
  <g id="eyes">
    <path d="M96.8,118.4a17.1,17.1,0,0,1,15.7,10.1,17.3,17.3,0,1,0-31.4-.1A17.2,17.2,0,0,1,96.8,118.4Z" transform="translate(0 0)" fill="#534239"/>
    <path d="M185.7,118.4a17.1,17.1,0,0,1,15.7,10.1,17.3,17.3,0,1,0-31.4-.1A17.2,17.2,0,0,1,185.7,118.4Z" transform="translate(0 0)" fill="#534239"/>
  </g>
</svg>
