  <svg xmlns="http://www.w3.org/2000/svg" width="50%" height="50%" viewBox="0 0 600 100">
    <defs>
      <script type="text/javascript">

        // <![CDATA[
        $(document).ready(function() {
        	var zold = $("#zold"),
        	    fekete = $("#fekete"),
        	    letters = $("#ihtText path"),
        	    $btnPlay = $("#btnPlay"),
        	    $btnSlowMo = $("#btnSlowMo"),
        	    $btnReverse = $("#btnReverse"),
        	    tl;  /* TimeLine */

        //   Creating timeline
          tl = new TimelineMax();

        //   Animating
          tl.set([zold], {yPercent: -310, rotation: 240, transformOrigin:"center center"});
          tl.set([fekete], {yPercent: -310});
          tl.set([letters], {yPercent: -310});

          tl.to([zold,fekete], 0.3, {yPercent: 0, ease:Bounce.easeOut}, 0.5)
            .to(zold, 0.5, {rotation: 0})
            .to(letters, 0.3, {yPercent: 0, ease:Power4.easeOut})
            .staggerFrom(letters, 0.03, {autoAlpha: 0}, 0.08)
            .add("end");
            });

          // ]]>
      </script>
    </defs>
    <g id="ihtText">
      <path d="M116.5,50.2h.8l.7.5,4.3,4.5a17.8,17.8,0,0,1-7,5.5,24.6,24.6,0,0,1-10,1.9,23.8,23.8,0,0,1-9.5-1.8,20.6,20.6,0,0,1-7.1-5,21.9,21.9,0,0,1-4.5-7.5A27.8,27.8,0,0,1,82.5,39a26.2,26.2,0,0,1,1.7-9.6A22.2,22.2,0,0,1,89,21.9,21.4,21.4,0,0,1,96.3,17a24.6,24.6,0,0,1,9.4-1.8,25.2,25.2,0,0,1,4.9.5,24.1,24.1,0,0,1,4.3,1.3,19.8,19.8,0,0,1,3.7,2,19.5,19.5,0,0,1,3,2.5L118,26.4l-.8.8a2.2,2.2,0,0,1-1.3.4l-1.1-.3-1.1-.6-1.3-.8-1.6-.8-2.2-.6-3-.3a11.9,11.9,0,0,0-4.9,1A10.7,10.7,0,0,0,96.9,28a13.4,13.4,0,0,0-2.5,4.7,20.8,20.8,0,0,0-.9,6.3,19.1,19.1,0,0,0,1,6.4A13.9,13.9,0,0,0,97.2,50a11.2,11.2,0,0,0,3.9,2.9,11.7,11.7,0,0,0,4.8,1h2.7l2.3-.5,2-.9,1.9-1.4.8-.5Z" fill="#343333"/>
      <path d="M171.6,39a25,25,0,0,1-1.7,9.4A22.2,22.2,0,0,1,157.4,61a27.8,27.8,0,0,1-19.8,0A22.2,22.2,0,0,1,125,48.3a25,25,0,0,1-1.7-9.4,25,25,0,0,1,1.7-9.4,22.3,22.3,0,0,1,4.9-7.5,22.7,22.7,0,0,1,7.6-5,26,26,0,0,1,9.9-1.8,25.7,25.7,0,0,1,9.9,1.8,22.8,22.8,0,0,1,7.6,5,22.5,22.5,0,0,1,4.9,7.5A24.9,24.9,0,0,1,171.6,39Zm-11.1,0a20.1,20.1,0,0,0-.9-6.2,13.2,13.2,0,0,0-2.6-4.7,11.1,11.1,0,0,0-4.1-2.9,14.1,14.1,0,0,0-5.5-1,14.3,14.3,0,0,0-5.6,1,11.1,11.1,0,0,0-4.1,2.9,13.2,13.2,0,0,0-2.6,4.7,20.1,20.1,0,0,0-.9,6.2,20.2,20.2,0,0,0,.9,6.2,13.1,13.1,0,0,0,2.6,4.7,10.9,10.9,0,0,0,4.1,2.9,14.5,14.5,0,0,0,5.6,1,14.3,14.3,0,0,0,5.5-1,10.9,10.9,0,0,0,4.1-2.9,13.2,13.2,0,0,0,2.6-4.7A20.2,20.2,0,0,0,160.5,39Z" fill="#343333"/>
      <path d="M218.5,18.5V62.2h-5.6a4.9,4.9,0,0,1-2.1-.4,5.1,5.1,0,0,1-1.7-1.4L187.2,32.7l.2,2.4a12.1,12.1,0,0,1,0,2.2V62.2h-9.5V15.7h6.9l.9.2.7.5.8.9,22.1,27.9a17.1,17.1,0,0,1-.2-2.6q0-1.3-.1-2.4V15.7h6.7a2.8,2.8,0,0,1,2.8,2.8Z" fill="#343333"/>
      <path d="M269.3,15.7,250.6,62.2h-9.8L222.2,15.7h8.7a3.7,3.7,0,0,1,2.3.7,4.2,4.2,0,0,1,1.3,1.7l9,24.9q.6,1.6,1.2,3.6t1.1,4a35.1,35.1,0,0,1,1-4L248,43l9-25a3.9,3.9,0,0,1,1.3-1.6,3.5,3.5,0,0,1,2.3-.7Z" fill="#343333"/>
      <path d="M283.8,24V34.9h14.6v8H283.8v11h19.1v8.3H273V15.7h30V24Z" fill="#343333"/>
      <path d="M347.6,62.2h-9.8a4.1,4.1,0,0,1-3.9-2l-7.7-13.5a3.1,3.1,0,0,0-3.1-1.7h-2.7V62.2H309.6V15.7h15.1a31.1,31.1,0,0,1,8.6,1,16.2,16.2,0,0,1,5.8,2.9,10.9,10.9,0,0,1,3.3,4.4,14.5,14.5,0,0,1,1,5.5,14.8,14.8,0,0,1-.6,4.3,13.2,13.2,0,0,1-1.8,3.7,13.6,13.6,0,0,1-2.9,3.1,15.6,15.6,0,0,1-4,2.2,9.8,9.8,0,0,1,2,1.4,9.5,9.5,0,0,1,1.7,1.9ZM324.7,37.6a11.1,11.1,0,0,0,3.8-.6,6.8,6.8,0,0,0,2.5-1.5,5.9,5.9,0,0,0,1.4-2.3,8.9,8.9,0,0,0,.4-2.9,6,6,0,0,0-2-4.8q-2-1.7-6.2-1.7h-4.3V37.6Z" fill="#343333"/>
      <path d="M377.3,25.2a4.1,4.1,0,0,1-1,1.1,2.3,2.3,0,0,1-1.4.4,3.3,3.3,0,0,1-1.6-.5l-1.9-1-2.4-1a9.8,9.8,0,0,0-3.1-.5,6.7,6.7,0,0,0-4.5,1.3,4.4,4.4,0,0,0-1.5,3.5,3.2,3.2,0,0,0,.9,2.3,7.7,7.7,0,0,0,2.3,1.6l3.3,1.2,3.8,1.2,3.8,1.6a12.7,12.7,0,0,1,3.3,2.4,11,11,0,0,1,2.3,3.5,12.4,12.4,0,0,1,.9,5,16.2,16.2,0,0,1-1.1,6,14.1,14.1,0,0,1-3.2,4.9,15,15,0,0,1-5.2,3.3,19.6,19.6,0,0,1-7.1,1.2,22.7,22.7,0,0,1-4.4-.4,26.2,26.2,0,0,1-4.4-1.3,25.2,25.2,0,0,1-4-1.9,16.8,16.8,0,0,1-3.2-2.5l3.2-5a3.2,3.2,0,0,1,1-.9,2.6,2.6,0,0,1,1.4-.4,3.6,3.6,0,0,1,1.9.6l2.2,1.3,2.8,1.3a10.6,10.6,0,0,0,3.8.6,7.2,7.2,0,0,0,4.6-1.3,4.9,4.9,0,0,0,1.6-4.1,3.9,3.9,0,0,0-.9-2.7,6.9,6.9,0,0,0-2.3-1.7,21.7,21.7,0,0,0-3.3-1.2L360.1,42a27.8,27.8,0,0,1-3.8-1.5,12,12,0,0,1-3.3-2.4,11.2,11.2,0,0,1-2.3-3.7,14.7,14.7,0,0,1-.9-5.5,13,13,0,0,1,1.1-5.1,13.2,13.2,0,0,1,3.1-4.4,15.2,15.2,0,0,1,5-3.1,18.5,18.5,0,0,1,6.8-1.2,25.5,25.5,0,0,1,4.2.3,21.9,21.9,0,0,1,3.8,1,21.1,21.1,0,0,1,3.4,1.6,15.7,15.7,0,0,1,2.8,2.1Z" fill="#343333"/>
      <path d="M397.8,62.2h-7.1a3.8,3.8,0,0,1-3.8-3.8V15.7h7.8a3,3,0,0,1,3,3h0Z" fill="#343333"/>
      <path d="M417.7,24V35.8h15.9v8.3H417.7V62.2H406.8V15.7h30V24Z" fill="#343333"/>
      <path d="M453.9,62.2h-7.1a3.8,3.8,0,0,1-3.8-3.8V15.7h7.8a3,3,0,0,1,3,3h0Z" fill="#343333"/>
      <path d="M494.2,50.2h.8l.7.5,4.3,4.5a17.8,17.8,0,0,1-7,5.5,24.6,24.6,0,0,1-10,1.9,23.8,23.8,0,0,1-9.5-1.8,20.6,20.6,0,0,1-7.1-5,21.9,21.9,0,0,1-4.5-7.5,27.8,27.8,0,0,1-1.6-9.5,26.2,26.2,0,0,1,1.7-9.6,22.2,22.2,0,0,1,4.8-7.5,21.4,21.4,0,0,1,7.3-4.9,24.6,24.6,0,0,1,9.4-1.8,25.2,25.2,0,0,1,4.9.5,24.1,24.1,0,0,1,4.3,1.3,19.8,19.8,0,0,1,3.7,2,19.4,19.4,0,0,1,3,2.5l-3.6,4.9-.8.8a2.2,2.2,0,0,1-1.3.4l-1.1-.3-1.1-.6-1.3-.8-1.6-.8-2.2-.6-3-.3a11.9,11.9,0,0,0-4.9,1,10.7,10.7,0,0,0-3.8,2.9,13.4,13.4,0,0,0-2.5,4.7,20.8,20.8,0,0,0-.9,6.3,19.1,19.1,0,0,0,1,6.4A13.9,13.9,0,0,0,475,50a11.2,11.2,0,0,0,3.9,2.9,11.7,11.7,0,0,0,4.8,1h2.7l2.3-.5,2-.9,1.9-1.4.8-.5Z" fill="#343333"/>
    </g>
    <g id="zold">
      <path d="M34,0,0,19.6V58.9L34,78.5,68,58.9V19.6ZM54.5,50.8,34,62.7,13.5,50.8V27.1L34,15.3,54.5,27.1Z" fill="#27b093"/>
    </g>
    <g id="fekete">
      <polygon points="34 19.2 34 39 16.8 29.1 16.8 48.9 34 58.8 51.1 48.9 51.1 29.1 34 19.2" fill="#343333"/>
    </g>
</svg>
