<svg xmlns="http://www.w3.org/2000/svg" width="410.1" height="326.8" viewBox="0 0 410.1 326.8">
  <title>imac</title>
  <g id="screen">
    <g>
      <path d="M446.3,340.1a9.4,9.4,0,0,1-9.4,9.5H45.6a9.4,9.4,0,0,1-9.4-9.5V76.1a9.4,9.4,0,0,1,9.4-9.5H436.9a9.4,9.4,0,0,1,9.4,9.5Z" transform="translate(-36.2 -66.6)" fill="#e5e5e5"/>
      <path d="M446.3,312.3V76.1a9.4,9.4,0,0,0-9.4-9.5H45.6a9.4,9.4,0,0,0-9.4,9.5V312.3Z" transform="translate(-36.2 -66.6)" fill="#28292a"/>
      <g id="Apple">
        <path d="M244.1,322.9a4.1,4.1,0,0,0,.9-3,4.4,4.4,0,0,0-2.8,1.5,3.8,3.8,0,0,0-.9,3A3.7,3.7,0,0,0,244.1,322.9Z" transform="translate(-36.2 -66.6)" fill="#231f20" fill-rule="evenodd"/>
        <path d="M247.2,331.3a4.2,4.2,0,0,1-.3-2.4,3.9,3.9,0,0,1,1.3-2.4l.7-.5a4.7,4.7,0,0,0-3.6-1.9c-1.7,0-2.4.8-3.6.8s-2.1-.8-3.6-.8a4.9,4.9,0,0,0-3.9,2.4h0a5.6,5.6,0,0,0-.8,2.4,9,9,0,0,0,.1,2.4,11.2,11.2,0,0,0,.7,2.4,12.1,12.1,0,0,0,1.1,2.2v.2c.8,1.1,1.8,2.4,3.1,2.4s1.6-.8,3.2-.8,2,.8,3.2.8,2.3-1.2,3-2.4l.2-.3a12.7,12.7,0,0,0,1.1-2.1v-.2A4.1,4.1,0,0,1,247.2,331.3Z" transform="translate(-36.2 -66.6)" fill="#231f20" fill-rule="evenodd"/>
      </g>
    </g>
  </g>
  <g id="talp">
    <g>
      <path d="M310.4,391.2c-.7-.2-14-2.7-14.8-3.1s-2-.6-2.4-1.4c-3.4-8.3-5.9-37.2-5.9-37.2h-92s-2.5,28.8-5.9,37.2c-.3.8-1.5,1.1-2.4,1.4s-14.1,2.9-14.8,3.1-.6.6-.6.6H311S311.1,391.4,310.4,391.2Z" transform="translate(-36.2 -66.6)" fill="#bababa"/>
      <rect x="135.7" y="325.1" width="139.1" height="0.97" fill="#494949"/>
      <rect x="175.4" y="325.1" width="59.8" height="0.97" fill="#e5e5e5"/>
      <rect x="136.4" y="326.1" width="137.9" height="0.72" fill="#28292a"/>
    </g>
  </g>
  <g id="page">
    <rect id="kepernyo" x="15.1" y="13.3" width="380" height="217.9" fill="#e5e5e5"/>
    <g>
      <rect x="105.4" y="93.7" width="199.2" height="10.98" rx="5.5" ry="5.5" fill="#fff"/>
      <rect x="105.4" y="76.3" width="199.2" height="10.98" rx="5.5" ry="5.5" fill="#fff"/>
      <rect x="105.4" y="59.1" width="199.2" height="10.98" rx="5.5" ry="5.5" fill="#fff"/>
      <rect x="105.4" y="199.5" width="199.2" height="10.98" rx="5.5" ry="5.5" fill="#fff"/>
      <rect x="61.1" y="112.5" width="179.5" height="78.77" rx="8.3" ry="8.3" fill="#fff"/>
      <rect x="251.2" y="112.5" width="97.6" height="33.46" rx="8.3" ry="8.3" fill="#fff"/>
      <rect x="251.2" y="157.8" width="97.6" height="33.46" rx="8.3" ry="8.3" fill="#fff"/>
    </g>
    <g>
      <rect id="fejlec" x="15.1" y="13.3" width="380" height="26.59" fill="#aaa"/>
      <circle cx="31.3" cy="28.4" r="4.8" fill="#dd686f"/>
      <circle cx="46.1" cy="28.4" r="4.8" fill="#ebc81a"/>
      <circle cx="61.4" cy="28.4" r="4.8" fill="#9ccb4c"/>
      <rect x="96.6" y="19.3" width="270.9" height="16.25" rx="3.3" ry="3.3" fill="#fff"/>
    </g>
  </g>
  <g id="black">
    <rect id="kepernyo-2" data-name="kepernyo" x="15.1" y="13.3" width="380" height="217.9" fill="#28292a" fill-opacity="0.7"/>
  </g>
  <g id="popup">
    <g>
      <rect id="popup-alap" x="80.4" y="39.4" width="249.3" height="169.68" rx="14" ry="14" fill="#87c8d2"/>
      <g id="szoveg">
        <rect x="107.6" y="92.5" width="195.8" height="6.75" rx="2.9" ry="2.9" fill="#bfeaef"/>
        <rect x="107.6" y="106" width="195.8" height="6.75" rx="2.9" ry="2.9" fill="#bfeaef"/>
        <rect x="107.6" y="61.6" width="195.8" height="19.97" rx="8.5" ry="8.5" fill="#bfeaef"/>
      </g>
    </g>
    <g id="input">
      <rect x="107.6" y="133.8" width="94.3" height="19.97" rx="8.3" ry="8.3" fill="#fff"/>
      <rect x="209.1" y="133.8" width="94.3" height="19.97" rx="8.3" ry="8.3" fill="#fff"/>
    </g>
    <g id="button">
      <rect id="shadow" x="141.1" y="166.5" width="128.9" height="22.13" rx="9.4" ry="9.4" fill="#639ca8"/>
      <rect id="gomb-alap" x="141.1" y="160.6" width="128.9" height="25.51" rx="10.8" ry="10.8" fill="#fff"/>
      <g id="subscribe">
        <path d="M210.3,243.2a3.4,3.4,0,0,0,2,.8c.7,0,1-.2,1-.6s-.4-.5-1.1-.8l-1.1-.4a2.5,2.5,0,0,1-1.7-2.4c0-1.4,1.3-2.6,3.1-2.6a4.1,4.1,0,0,1,2.8,1.1l-1.1,1.4a2.8,2.8,0,0,0-1.7-.6c-.5,0-.9.2-.9.6s.5.5,1.2.8l1,.4a2.3,2.3,0,0,1,1.6,2.3c0,1.4-1.2,2.7-3.3,2.7a4.9,4.9,0,0,1-3.2-1.2Z" transform="translate(-36.2 -66.6)" fill="#87c8d2"/>
        <path d="M216.8,237.3h2.2v4.6c0,1.5.4,2.1,1.3,2.1s1.3-.5,1.3-2.1v-4.6h2.2v4.4c0,2.9-1.1,4.2-3.5,4.2s-3.5-1.4-3.5-4.2Z" transform="translate(-36.2 -66.6)" fill="#87c8d2"/>
        <path d="M225.6,237.3h3c1.8,0,3.2.4,3.2,2.1a1.8,1.8,0,0,1-1.4,1.8h0a1.9,1.9,0,0,1,1.8,2c0,1.7-1.5,2.5-3.3,2.5h-3.3Zm3,3.3c.7,0,1.1-.4,1.1-.9s-.3-.7-1.1-.7h-.8v1.6Zm.2,3.4c.9,0,1.3-.3,1.3-1s-.4-.9-1.3-.9h-.9V244Z" transform="translate(-36.2 -66.6)" fill="#87c8d2"/>
        <path d="M234.1,243.2a3.4,3.4,0,0,0,2,.8c.7,0,1-.2,1-.6s-.4-.5-1.1-.8l-1.1-.4a2.5,2.5,0,0,1-1.7-2.4c0-1.4,1.3-2.6,3.1-2.6a4.1,4.1,0,0,1,2.8,1.1l-1.1,1.4a2.8,2.8,0,0,0-1.7-.6c-.5,0-.9.2-.9.6s.5.5,1.2.8l1,.4a2.3,2.3,0,0,1,1.6,2.3c0,1.4-1.2,2.7-3.3,2.7a4.9,4.9,0,0,1-3.2-1.2Z" transform="translate(-36.2 -66.6)" fill="#87c8d2"/>
        <path d="M244.4,237.2a3.7,3.7,0,0,1,2.6,1.1l-1.2,1.4a1.9,1.9,0,0,0-1.3-.6c-1,0-1.9.9-1.9,2.4s.7,2.5,1.8,2.5a1.9,1.9,0,0,0,1.5-.7l1.2,1.4a3.5,3.5,0,0,1-2.7,1.2,3.9,3.9,0,0,1-4.1-4.3A4.1,4.1,0,0,1,244.4,237.2Z" transform="translate(-36.2 -66.6)" fill="#87c8d2"/>
        <path d="M252.8,245.8l-1.5-2.8h-.9v2.8h-2.2v-8.4h3.2c1.8,0,3.4.6,3.4,2.7a2.6,2.6,0,0,1-1.4,2.4l1.8,3.3Zm-2.3-4.6h.8c.9,0,1.4-.4,1.4-1.1s-.5-1-1.4-1h-.8Z" transform="translate(-36.2 -66.6)" fill="#87c8d2"/>
        <path d="M256.4,237.3h2.2v8.4h-2.2Z" transform="translate(-36.2 -66.6)" fill="#87c8d2"/>
        <path d="M260.5,237.3h3c1.8,0,3.2.4,3.2,2.1a1.8,1.8,0,0,1-1.4,1.8h0a1.9,1.9,0,0,1,1.8,2c0,1.7-1.5,2.5-3.3,2.5h-3.3Zm3,3.3c.7,0,1.1-.4,1.1-.9s-.3-.7-1.1-.7h-.8v1.6Zm.2,3.4c.9,0,1.3-.3,1.3-1s-.4-.9-1.3-.9h-.9V244Z" transform="translate(-36.2 -66.6)" fill="#87c8d2"/>
        <path d="M268.5,237.3h5.5v1.9h-3.2v1.3h2.8v1.9h-2.8v1.5h3.4v1.9h-5.6Z" transform="translate(-36.2 -66.6)" fill="#87c8d2"/>
      </g>
    </g>
    <g id="somaemail">
      <path d="M257.2,212.6a2,2,0,0,1-.6,1.5,2.3,2.3,0,0,1-1.6.5,3.1,3.1,0,0,1-1.6-.4v-1.4l.8.4h.8l.6-.2a.6.6,0,0,0,.2-.5.8.8,0,0,0-.2-.5l-.7-.5a3,3,0,0,1-1-.9,2,2,0,0,1-.3-1.1,1.6,1.6,0,0,1,.6-1.3,2.3,2.3,0,0,1,1.6-.5,3.1,3.1,0,0,1,1.6.5l-.5,1.1-1.1-.3-.4.2a.5.5,0,0,0-.1.4.7.7,0,0,0,.2.5l.7.5.9.6.4.6A2,2,0,0,1,257.2,212.6Z" transform="translate(-36.2 -66.6)" fill="#28292a"/>
      <path d="M263,211.2a4,4,0,0,1-.7,2.5,2.4,2.4,0,0,1-3.2.5,2.6,2.6,0,0,1-.9-1.2,4.8,4.8,0,0,1-.3-1.8,4,4,0,0,1,.7-2.5,2.2,2.2,0,0,1,1.9-.9,2.2,2.2,0,0,1,1.8.9A4,4,0,0,1,263,211.2Zm-3.5,0a4.1,4.1,0,0,0,.2,1.5.7.7,0,0,0,.7.5q.9,0,.9-2.1a4,4,0,0,0-.2-1.5.8.8,0,0,0-1.4,0A4,4,0,0,0,259.5,211.2Z" transform="translate(-36.2 -66.6)" fill="#28292a"/>
      <path d="M270.6,214.5v-3.9q0-1.4-.7-1.4a.8.8,0,0,0-.7.5,4.4,4.4,0,0,0-.2,1.6v3.2h-1.6v-3.9q0-1.4-.7-1.4a.8.8,0,0,0-.7.5,4.5,4.5,0,0,0-.2,1.7v3.1h-1.6v-6.5h1.2l.2.8h.1a1.6,1.6,0,0,1,.6-.7l.9-.2a1.6,1.6,0,0,1,1.6,1.1h.1a1.7,1.7,0,0,1,1.6-1.1,1.5,1.5,0,0,1,1.3.6,3,3,0,0,1,.4,1.8v4.3Z" transform="translate(-36.2 -66.6)" fill="#28292a"/>
      <path d="M276.6,214.5l-.3-.9h0a2.2,2.2,0,0,1-.7.8l-.9.2a1.4,1.4,0,0,1-1.1-.5,2.4,2.4,0,0,1-.4-1.5,1.9,1.9,0,0,1,.6-1.5,2.7,2.7,0,0,1,1.7-.6h.9V210q0-.9-.8-.9a2.7,2.7,0,0,0-1.3.5l-.5-1.1a3.9,3.9,0,0,1,2.1-.6,2,2,0,0,1,1.6.6,2.4,2.4,0,0,1,.5,1.7v4.4Zm-1.4-1.1a.8.8,0,0,0,.7-.4,1.8,1.8,0,0,0,.3-1v-.6h-.5a1.1,1.1,0,0,0-.8.3,1.2,1.2,0,0,0-.2.8Q274.7,213.4,275.2,213.4Z" transform="translate(-36.2 -66.6)" fill="#28292a"/>
      <path d="M286.6,210.1a4.3,4.3,0,0,1-.5,2.2,1.5,1.5,0,0,1-1.4.8l-.7-.2a1,1,0,0,1-.4-.6h0l-.5.6-.7.2a1.3,1.3,0,0,1-1.1-.5,2.7,2.7,0,0,1-.4-1.6,3.4,3.4,0,0,1,.6-2.1,1.8,1.8,0,0,1,1.5-.8l1.5.3v3a1.5,1.5,0,0,0,.1.7l.3.2q.3,0,.5-.5a5.2,5.2,0,0,0,.2-1.5,3.8,3.8,0,0,0-.6-2.4,2.2,2.2,0,0,0-1.8-.8,2.5,2.5,0,0,0-1.6.5,3.3,3.3,0,0,0-1,1.5,5.7,5.7,0,0,0-.4,2.1,4,4,0,0,0,.7,2.6,2.4,2.4,0,0,0,2,.9,4.9,4.9,0,0,0,2.1-.5v1.1a4.5,4.5,0,0,1-2.2.5,3.9,3.9,0,0,1-2.1-.5,3.5,3.5,0,0,1-1.4-1.5,5.6,5.6,0,0,1-.5-2.4,6.6,6.6,0,0,1,.5-2.7,4.1,4.1,0,0,1,1.5-1.8,3.9,3.9,0,0,1,2.2-.6,3.3,3.3,0,0,1,2.7,1.1A4.7,4.7,0,0,1,286.6,210.1Zm-4.5.8a2.3,2.3,0,0,0,.1.9.4.4,0,0,0,.4.3q.3,0,.4-.4a4.8,4.8,0,0,0,.2-1.2v-1.3h-.4q-.4,0-.6.5A3.3,3.3,0,0,0,282.1,210.9Z" transform="translate(-36.2 -66.6)" fill="#28292a"/>
      <path d="M294.2,214.5v-3.9q0-1.4-.7-1.4a.8.8,0,0,0-.7.5,4.4,4.4,0,0,0-.2,1.6v3.2h-1.6v-3.9q0-1.4-.7-1.4a.8.8,0,0,0-.7.5,4.5,4.5,0,0,0-.2,1.7v3.1h-1.6v-6.5h1.2l.2.8h.1a1.6,1.6,0,0,1,.6-.7l.9-.2a1.6,1.6,0,0,1,1.6,1.1h.1a1.7,1.7,0,0,1,1.6-1.1,1.5,1.5,0,0,1,1.3.6,3,3,0,0,1,.4,1.8v4.3Z" transform="translate(-36.2 -66.6)" fill="#28292a"/>
      <path d="M300.2,214.5l-.3-.9h0a2.2,2.2,0,0,1-.7.8l-.9.2a1.4,1.4,0,0,1-1.1-.5,2.4,2.4,0,0,1-.4-1.5,1.9,1.9,0,0,1,.6-1.5,2.7,2.7,0,0,1,1.7-.6h.9V210q0-.9-.8-.9a2.7,2.7,0,0,0-1.3.5l-.5-1.1a3.9,3.9,0,0,1,2.1-.6,2,2,0,0,1,1.6.6,2.4,2.4,0,0,1,.5,1.7v4.4Zm-1.4-1.1a.8.8,0,0,0,.7-.4,1.8,1.8,0,0,0,.3-1v-.6h-.5a1.1,1.1,0,0,0-.8.3,1.2,1.2,0,0,0-.2.8Q298.3,213.4,298.8,213.4Z" transform="translate(-36.2 -66.6)" fill="#28292a"/>
      <path d="M302.6,206.2a.8.8,0,0,1,.2-.6l.6-.2.6.2a.8.8,0,0,1,.2.6.8.8,0,0,1-.2.6l-.6.2-.6-.2A.8.8,0,0,1,302.6,206.2Zm1.6,8.2h-1.6v-6.5h1.6Z" transform="translate(-36.2 -66.6)" fill="#28292a"/>
      <path d="M307.1,214.5h-1.6v-9.1h1.6Z" transform="translate(-36.2 -66.6)" fill="#28292a"/>
      <path d="M308.4,213.7a1,1,0,0,1,.2-.7,1,1,0,0,1,.7-.3.9.9,0,0,1,1,1,1,1,0,0,1-.3.7,1,1,0,0,1-.7.3,1,1,0,0,1-.7-.3A1,1,0,0,1,308.4,213.7Z" transform="translate(-36.2 -66.6)" fill="#28292a"/>
      <path d="M313.8,214.6a2,2,0,0,1-1.8-.8,4.3,4.3,0,0,1-.6-2.5,4.6,4.6,0,0,1,.6-2.6,2,2,0,0,1,1.8-.8h.8l.7.3-.4,1.2-.9-.3a.7.7,0,0,0-.7.5,4.2,4.2,0,0,0-.2,1.6,4,4,0,0,0,.2,1.5.7.7,0,0,0,.7.5,2.3,2.3,0,0,0,1.2-.4v1.4A2.5,2.5,0,0,1,313.8,214.6Z" transform="translate(-36.2 -66.6)" fill="#28292a"/>
      <path d="M320.9,211.2a4,4,0,0,1-.7,2.5,2.4,2.4,0,0,1-3.2.5,2.6,2.6,0,0,1-.9-1.2,4.8,4.8,0,0,1-.3-1.8,4,4,0,0,1,.7-2.5,2.2,2.2,0,0,1,1.9-.9,2.2,2.2,0,0,1,1.8.9A4,4,0,0,1,320.9,211.2Zm-3.5,0a4.1,4.1,0,0,0,.2,1.5.7.7,0,0,0,.7.5q.9,0,.9-2.1a4,4,0,0,0-.2-1.5.8.8,0,0,0-1.4,0A4,4,0,0,0,317.4,211.2Z" transform="translate(-36.2 -66.6)" fill="#28292a"/>
      <path d="M328.5,214.5v-3.9q0-1.4-.7-1.4a.8.8,0,0,0-.7.5,4.4,4.4,0,0,0-.2,1.6v3.2h-1.6v-3.9q0-1.4-.7-1.4a.8.8,0,0,0-.7.5,4.5,4.5,0,0,0-.2,1.7v3.1H322v-6.5h1.2l.2.8h.1a1.6,1.6,0,0,1,.6-.7l.9-.2a1.6,1.6,0,0,1,1.6,1.1h.1a1.7,1.7,0,0,1,1.6-1.1,1.5,1.5,0,0,1,1.3.6,3,3,0,0,1,.4,1.8v4.3Z" transform="translate(-36.2 -66.6)" fill="#28292a"/>
    </g>
    <g id="soma">
      <path d="M158,212.1a2.6,2.6,0,0,1-.6,1.8,2.3,2.3,0,0,1-1.7.6,3.8,3.8,0,0,1-1.9-.4v-1.6a3.3,3.3,0,0,0,1.8.6.9.9,0,0,0,.7-.3,1,1,0,0,0,.2-.7,1.2,1.2,0,0,0-.3-.8l-.9-.8-.8-.7a2.6,2.6,0,0,1-.4-.8,3,3,0,0,1-.2-1,2.4,2.4,0,0,1,.6-1.7,2.2,2.2,0,0,1,1.6-.6,3.6,3.6,0,0,1,1.9.6l-.5,1.3-.6-.3h-.7a.7.7,0,0,0-.6.3,1.1,1.1,0,0,0-.2.7,1.2,1.2,0,0,0,.2.8l.9.7a3.6,3.6,0,0,1,1.2,1.1A2.7,2.7,0,0,1,158,212.1Z" transform="translate(-36.2 -66.6)" fill="#28292a"/>
      <path d="M163.8,211.2a4,4,0,0,1-.7,2.5,2.4,2.4,0,0,1-3.2.5,2.6,2.6,0,0,1-.9-1.2,4.8,4.8,0,0,1-.3-1.8,4,4,0,0,1,.7-2.5,2.2,2.2,0,0,1,1.9-.9,2.2,2.2,0,0,1,1.8.9A4,4,0,0,1,163.8,211.2Zm-3.5,0a4.1,4.1,0,0,0,.2,1.5.7.7,0,0,0,.7.5q.9,0,.9-2.1a4,4,0,0,0-.2-1.5.8.8,0,0,0-1.4,0A4,4,0,0,0,160.3,211.2Z" transform="translate(-36.2 -66.6)" fill="#28292a"/>
      <path d="M171.4,214.5v-3.9q0-1.4-.7-1.4a.8.8,0,0,0-.7.5,4.4,4.4,0,0,0-.2,1.6v3.2h-1.6v-3.9q0-1.4-.7-1.4a.8.8,0,0,0-.7.5,4.5,4.5,0,0,0-.2,1.7v3.1h-1.6v-6.5h1.2l.2.8h.1a1.6,1.6,0,0,1,.6-.7l.9-.2a1.6,1.6,0,0,1,1.6,1.1h.1a1.7,1.7,0,0,1,1.6-1.1,1.5,1.5,0,0,1,1.3.6,3,3,0,0,1,.4,1.8v4.3Z" transform="translate(-36.2 -66.6)" fill="#28292a"/>
      <path d="M177.4,214.5l-.3-.9h0a2.2,2.2,0,0,1-.7.8l-.9.2a1.4,1.4,0,0,1-1.1-.5,2.4,2.4,0,0,1-.4-1.5,1.9,1.9,0,0,1,.6-1.5,2.7,2.7,0,0,1,1.7-.6h.9V210q0-.9-.8-.9a2.7,2.7,0,0,0-1.3.5l-.5-1.1a3.9,3.9,0,0,1,2.1-.6,2,2,0,0,1,1.6.6,2.4,2.4,0,0,1,.5,1.7v4.4Zm-1.4-1.1a.8.8,0,0,0,.7-.4,1.8,1.8,0,0,0,.3-1v-.6h-.5a1.1,1.1,0,0,0-.8.3,1.2,1.2,0,0,0-.2.8Q175.5,213.4,176,213.4Z" transform="translate(-36.2 -66.6)" fill="#28292a"/>
    </g>
  </g>
  <g id="cursor">
    <path d="M397.3,285.3,385,273l8.8-5.1a2.1,2.1,0,0,0-.3-3.7l-39.1-15.6a2.1,2.1,0,0,0-2.7,2.7l15.6,39.2a2.1,2.1,0,0,0,3.7.3l5.1-8.8,12.3,12.3a2.1,2.1,0,0,0,2.9,0l6-6A2.1,2.1,0,0,0,397.3,285.3Z" transform="translate(-36.2 -66.6)"/>
  </g>
</svg>
