<?xml version="1.0" encoding="utf-8"?>
<!-- Generator: Adobe Illustrator 21.0.2, SVG Export Plug-In . SVG Version: 6.00 Build 0)  -->
<svg version="1.1" id="Layer_1" xmlns="http://www.w3.org/2000/svg" xmlns:xlink="http://www.w3.org/1999/xlink" x="0px" y="0px"
	 viewBox="0 0 170 50" style="enable-background:new 0 0 170 50;" xml:space="preserve">
<style type="text/css">
	.st0{display:none;}
</style>
<path d="M1.6,35.8H15V49H1.6V35.8z"/>
<path class="st0" d="M22.2,1.4h13.2v19.3L51.9,1.4h15.6l-18,20.4L68.1,49H52.3l-12-17.7l-4.8,5.3V49H22.2V1.4z"/>
<path d="M66.6,25.4v-0.1c0-13.7,11-24.8,25.7-24.8s25.6,11,25.6,24.6v0.1c0,13.7-11,24.8-25.7,24.8C77.4,50,66.6,39,66.6,25.4z
	 M104.3,25.4v-0.1c0-6.9-4.9-12.9-12.2-12.9c-7.3,0-12.1,5.9-12.1,12.7v0.1c0,6.9,5,12.9,12.2,12.9C99.5,38.1,104.3,32.2,104.3,25.4
	z"/>
<path d="M124.7,1.4h18.4c16.9,0,26.8,9.8,26.8,23.5V25c0,13.7-10,24-27.1,24h-18.2V1.4H124.7z M137.9,13v24.3h5.4
	c8,0,13.2-4.4,13.2-12v-0.1c0-7.6-5.2-12.1-13.2-12.1L137.9,13L137.9,13z"/>
<rect x="22.2" y="1.4" width="13.2" height="47.6"/>
<g>
	<path d="M53.9,9.2l-0.5,11.2c0,0.9-0.3,1.8-0.9,2.5c-0.6,0.7-1.3,1.4-2.2,1.9c0.8,0.6,1.5,1.2,2.1,1.9c0.6,0.7,0.9,1.6,0.9,2.5
		l0.5,11.9H61V49H45.1c-0.3,0-0.7-0.1-1.2-0.4c-0.5-0.2-0.7-0.7-0.7-1.5V32.6c0-1.2-0.5-2.2-1.4-3c-0.9-0.8-3-1.3-4.1-1.5v-6.8
		c0.5,0,2.1-0.1,2.7-0.4c0.5-0.3,1-0.6,1.4-1c0.4-0.4,0.7-0.9,1-1.4c0.2-0.5,0.4-1,0.4-1.5V3.3c0-0.7,0.2-1.2,0.7-1.5
		c0.5-0.2,0.9-0.4,1.1-0.4H61v7.8H53.9z"/>
</g>
</svg>
