<svg xmlns="http://www.w3.org/2000/svg" xmlns:xlink="http://www.w3.org/1999/xlink" width="326.3" height="465.5" viewBox="0 0 326.3 465.5">
  <defs>
    <radialGradient id="radial-gradient" cx="148.58" cy="436.08" r="69.19" gradientUnits="userSpaceOnUse">
      <stop offset="0.2" stop-color="#a67c52"/>
      <stop offset="0.51" stop-color="#f9d6b4"/>
      <stop offset="0.82" stop-color="#c7b299"/>
    </radialGradient>
    <radialGradient id="radial-gradient-2" cx="233.26" cy="393.75" r="107.46" gradientUnits="userSpaceOnUse">
      <stop offset="0.37" stop-color="#f9d6b4"/>
      <stop offset="1" stop-color="#f9a24d"/>
    </radialGradient>
    <radialGradient id="radial-gradient-3" cx="8471.38" cy="443.01" r="69.19" gradientTransform="matrix(-1, 0, 0, 1, 8845.49, 0)" xlink:href="#radial-gradient"/>
    <radialGradient id="radial-gradient-4" cx="8566.08" cy="390.4" r="125.15" gradientTransform="matrix(-1, 0, 0, 1, 8845.49, 0)" xlink:href="#radial-gradient-2"/>
    <radialGradient id="radial-gradient-5" cx="8477.66" cy="460.93" r="0" gradientTransform="matrix(-1, 0, 0, 1, 8845.49, 0)" xlink:href="#radial-gradient-2"/>
    <clipPath id="clip-path" transform="translate(-56.8 -11.7)">
      <path d="M215.5,140.2s-27.7-5.9-61.8,14.9l-31,10.9.4-3.9a14.8,14.8,0,0,0,3.9-2.6c4-3.9,4.6-15.5,28-15.1,10,.2,3-12.6,2-13.9-4.3-5.8-23.5-.7-23.5-.7-2.5-3.1-1.2-16.1.8-25.9s-.3-23.1-8.6-25.2c0,0-10.8,2.8-9.1,7.3s2.8,9.6,2.8,9.6a73.1,73.1,0,0,1-8.2,8.4c-8.4,7-15.2,13.6-17.5,19.8-1.4,3.7-5.7,16.3-3.9,26.5-.5,8.9-24.9,48.4-4.9,60.4s66.6-8.9,66.6-8.9-7.4,33.6-2,65.8S290.9,155.1,290.9,155.1Z" fill="none"/>
    </clipPath>
    <radialGradient id="radial-gradient-6" cx="140.63" cy="200.56" r="132.72" xlink:href="#radial-gradient-2"/>
    <radialGradient id="radial-gradient-7" cx="60.04" cy="152.18" r="9.65" xlink:href="#radial-gradient-2"/>
    <radialGradient id="radial-gradient-8" cx="352.27" cy="286.52" r="74.05" xlink:href="#radial-gradient-2"/>
    <radialGradient id="radial-gradient-9" cx="271.46" cy="240.78" r="73.79" xlink:href="#radial-gradient-2"/>
    <radialGradient id="radial-gradient-10" cx="153.43" cy="443.43" r="70.6" xlink:href="#radial-gradient"/>
    <radialGradient id="radial-gradient-11" cx="239.85" cy="399.52" r="110.88" xlink:href="#radial-gradient-2"/>
    <radialGradient id="radial-gradient-12" cx="159.84" cy="461.72" r="0" xlink:href="#radial-gradient-2"/>
    <radialGradient id="radial-gradient-13" cx="7993.43" cy="443.43" r="70.6" gradientTransform="matrix(-1, 0, 0, 1, 8331.67, 0)" xlink:href="#radial-gradient"/>
    <radialGradient id="radial-gradient-14" cx="8079.85" cy="399.52" r="110.88" gradientTransform="matrix(-1, 0, 0, 1, 8331.67, 0)" xlink:href="#radial-gradient-2"/>
    <radialGradient id="radial-gradient-15" cx="7999.84" cy="461.72" r="0" gradientTransform="matrix(-1, 0, 0, 1, 8331.67, 0)" xlink:href="#radial-gradient-2"/>
    <radialGradient id="radial-gradient-16" cx="140.09" cy="151.36" r="123.95" xlink:href="#radial-gradient-2"/>
    <radialGradient id="radial-gradient-17" cx="47.22" cy="284.38" r="23.86" gradientTransform="translate(484.5 41) rotate(90)" xlink:href="#radial-gradient-2"/>
    <radialGradient id="radial-gradient-18" cx="258.51" cy="-359.26" r="132.58" gradientTransform="matrix(0.99, -0.12, 0.12, 0.99, 2.81, 483.36)" xlink:href="#radial-gradient-2"/>
    <radialGradient id="radial-gradient-19" cx="-2215.87" cy="5730.68" r="10.77" gradientTransform="matrix(0, 0.68, -0.45, 0, 2808.51, 1620.18)" gradientUnits="userSpaceOnUse">
      <stop offset="0" stop-color="#f7931e" stop-opacity="0.95"/>
      <stop offset="0.1" stop-color="#f7931e" stop-opacity="0.75"/>
      <stop offset="0.22" stop-color="#f7931e" stop-opacity="0.56"/>
      <stop offset="0.35" stop-color="#f7931e" stop-opacity="0.39"/>
      <stop offset="0.47" stop-color="#f7931e" stop-opacity="0.25"/>
      <stop offset="0.6" stop-color="#f7931e" stop-opacity="0.14"/>
      <stop offset="0.73" stop-color="#f7931e" stop-opacity="0.06"/>
      <stop offset="0.86" stop-color="#f7931e" stop-opacity="0.02"/>
      <stop offset="1" stop-color="#f7931e" stop-opacity="0"/>
    </radialGradient>
    <radialGradient id="radial-gradient-20" cx="-257.14" cy="-210.04" r="27.07" gradientTransform="matrix(1.26, 0, 0, 0.45, 543.59, 190.56)" xlink:href="#radial-gradient-19"/>
    <linearGradient id="linear-gradient" x1="64.2" y1="276.04" x2="64.2" y2="240.44" gradientTransform="translate(142.8 -192.2) rotate(1.7)" gradientUnits="userSpaceOnUse">
      <stop offset="0" stop-color="#f9d6b4"/>
      <stop offset="1" stop-color="#f9a24d"/>
    </linearGradient>
    <radialGradient id="radial-gradient-21" cx="-157.67" cy="683.3" r="23.18" gradientTransform="matrix(1.24, -0.2, 0.14, 0.85, 286.79, -510.02)" gradientUnits="userSpaceOnUse">
      <stop offset="0" stop-color="#fff" stop-opacity="0.95"/>
      <stop offset="0.12" stop-color="#fff" stop-opacity="0.73"/>
      <stop offset="0.24" stop-color="#fff" stop-opacity="0.54"/>
      <stop offset="0.36" stop-color="#fff" stop-opacity="0.37"/>
      <stop offset="0.48" stop-color="#fff" stop-opacity="0.24"/>
      <stop offset="0.6" stop-color="#fff" stop-opacity="0.13"/>
      <stop offset="0.73" stop-color="#fff" stop-opacity="0.06"/>
      <stop offset="0.86" stop-color="#fff" stop-opacity="0.01"/>
      <stop offset="1" stop-color="#fff" stop-opacity="0"/>
    </radialGradient>
    <linearGradient id="linear-gradient-2" x1="91.54" y1="284.95" x2="91.04" y2="279.69" gradientTransform="translate(142.8 -192.2) rotate(1.7)" gradientUnits="userSpaceOnUse">
      <stop offset="0" stop-color="#fff"/>
      <stop offset="0.06" stop-color="#fff" stop-opacity="0.86"/>
      <stop offset="0.16" stop-color="#fff" stop-opacity="0.66"/>
      <stop offset="0.26" stop-color="#fff" stop-opacity="0.48"/>
      <stop offset="0.37" stop-color="#fff" stop-opacity="0.33"/>
      <stop offset="0.48" stop-color="#fff" stop-opacity="0.21"/>
      <stop offset="0.59" stop-color="#fff" stop-opacity="0.12"/>
      <stop offset="0.71" stop-color="#fff" stop-opacity="0.05"/>
      <stop offset="0.84" stop-color="#fff" stop-opacity="0.01"/>
      <stop offset="1" stop-color="#fff" stop-opacity="0"/>
    </linearGradient>
    <linearGradient id="linear-gradient-3" x1="109.98" y1="277.3" x2="109.98" y2="240.37" xlink:href="#linear-gradient"/>
    <filter id="luminosity-noclip" x="191.28" y="58.82" width="25.53" height="31.12" filterUnits="userSpaceOnUse" color-interpolation-filters="sRGB">
      <feFlood flood-color="#fff" result="bg"/>
      <feBlend in="SourceGraphic" in2="bg"/>
    </filter>
    <mask id="mask" x="134.48" y="47.14" width="25.53" height="31.12" maskUnits="userSpaceOnUse">
      <g filter="url(#luminosity-noclip)">
        <g transform="translate(-56.8 -11.7)">
          <path d="M191.3,63.7s13.2-6.7,20.4,1c0,0,3,11.1-2.8,21.7,0,0,9.2-2.1,7.8-13.4S208.2,58.5,205,60.4C205,60.4,197.9,55.2,191.3,63.7Z"/>
        </g>
      </g>
    </mask>
    <radialGradient id="radial-gradient-22" cx="34.81" cy="491.82" r="14.02" gradientTransform="translate(-28 -362.4) rotate(-23.5)" gradientUnits="userSpaceOnUse">
      <stop offset="0.24" stop-color="#fff"/>
      <stop offset="0.78" stop-color="#b0d3e2"/>
      <stop offset="1" stop-color="#fff"/>
    </radialGradient>
    <radialGradient id="radial-gradient-23" cx="91.3" cy="489.54" r="10.43" gradientTransform="translate(-49.2 -345.6) rotate(-20.6)" gradientUnits="userSpaceOnUse">
      <stop offset="0" stop-color="#ff5f00"/>
      <stop offset="0.09" stop-color="#db5100"/>
      <stop offset="0.21" stop-color="#ab4000"/>
      <stop offset="0.34" stop-color="#853100"/>
      <stop offset="0.45" stop-color="#6a2700"/>
      <stop offset="0.55" stop-color="#5a2100"/>
      <stop offset="0.62" stop-color="#541f00"/>
      <stop offset="0.74" stop-color="#562000"/>
      <stop offset="0.8" stop-color="#5e2300"/>
      <stop offset="0.84" stop-color="#6b2800"/>
      <stop offset="0.88" stop-color="#7e2f00"/>
      <stop offset="0.92" stop-color="#963800"/>
      <stop offset="0.95" stop-color="#b44300"/>
      <stop offset="0.97" stop-color="#d65000"/>
      <stop offset="1" stop-color="#fe5f00"/>
      <stop offset="1" stop-color="#ff5f00"/>
    </radialGradient>
    <radialGradient id="radial-gradient-24" cx="249.29" cy="-375.32" r="10.27" gradientTransform="matrix(0.99, -0.12, 0.12, 0.99, 2.81, 483.36)" gradientUnits="userSpaceOnUse">
      <stop offset="0" stop-color="#ff5f00"/>
      <stop offset="0.06" stop-color="#db5100"/>
      <stop offset="0.14" stop-color="#ab4000"/>
      <stop offset="0.22" stop-color="#853100"/>
      <stop offset="0.29" stop-color="#6a2700"/>
      <stop offset="0.36" stop-color="#5a2100"/>
      <stop offset="0.41" stop-color="#541f00"/>
      <stop offset="0.63" stop-color="#521e00"/>
      <stop offset="0.74" stop-color="#4a1b00"/>
      <stop offset="0.83" stop-color="#3d1700"/>
      <stop offset="0.9" stop-color="#2a1000"/>
      <stop offset="0.96" stop-color="#120700"/>
      <stop offset="1"/>
    </radialGradient>
    <linearGradient id="linear-gradient-4" x1="132.29" y1="520.44" x2="132.29" y2="479.5" gradientTransform="translate(-4.8 -408.7) rotate(-8.6)" gradientUnits="userSpaceOnUse">
      <stop offset="0.02" stop-color="#f9d6b4"/>
      <stop offset="1" stop-color="#f9a24d"/>
    </linearGradient>
    <linearGradient id="linear-gradient-5" x1="88.02" y1="279.32" x2="85.3" y2="251.27" xlink:href="#linear-gradient-2"/>
    <filter id="luminosity-noclip-2" x="238.87" y="52.6" width="32.9" height="31.14" filterUnits="userSpaceOnUse" color-interpolation-filters="sRGB">
      <feFlood flood-color="#fff" result="bg"/>
      <feBlend in="SourceGraphic" in2="bg"/>
    </filter>
    <mask id="mask-2" x="182.06" y="40.91" width="32.9" height="31.14" maskUnits="userSpaceOnUse">
      <g filter="url(#luminosity-noclip-2)">
        <g transform="translate(-56.8 -11.7)">
          <path d="M238.9,65s11-16.5,32.9-7.2c0,0-2.2-6.6-20-4.9C251.7,52.9,240.6,57.6,238.9,65Z"/>
        </g>
      </g>
    </mask>
    <radialGradient id="radial-gradient-25" cx="113.87" cy="259.9" r="19.17" gradientTransform="translate(142.2 -193.5) rotate(1.6)" xlink:href="#radial-gradient-22"/>
    <radialGradient id="radial-gradient-26" cx="161.14" cy="251.65" r="12.56" gradientTransform="translate(115.7 -186.2) rotate(4.5)" xlink:href="#radial-gradient-23"/>
    <radialGradient id="radial-gradient-27" cx="299.89" cy="-372.71" r="12.37" xlink:href="#radial-gradient-24"/>
    <radialGradient id="radial-gradient-28" cx="93.51" cy="288.18" r="13.25" gradientTransform="translate(142.8 -192.2) rotate(1.7)" xlink:href="#radial-gradient-24"/>
    <linearGradient id="linear-gradient-6" x1="74.73" y1="285.05" x2="78.54" y2="285.6" xlink:href="#linear-gradient-2"/>
    <radialGradient id="radial-gradient-29" cx="223.52" cy="289.38" r="12.85" gradientTransform="matrix(-0.4, -0.01, -0.03, 1, 309.14, -187.38)" xlink:href="#radial-gradient-24"/>
    <linearGradient id="linear-gradient-7" x1="121.47" y1="275.49" x2="121.47" y2="235.95" xlink:href="#linear-gradient"/>
    <radialGradient id="radial-gradient-30" cx="69.49" cy="284.97" r="23.86" gradientTransform="matrix(-1, 0, 0, 1, 371.82, -199.35)" xlink:href="#radial-gradient-2"/>
    <radialGradient id="radial-gradient-31" cx="280.46" cy="-355.43" r="132.58" gradientTransform="matrix(-1, 0.04, 0.04, 1, 559.41, 436.27)" xlink:href="#radial-gradient-2"/>
    <radialGradient id="radial-gradient-32" cx="-2187.98" cy="5712.57" r="10.77" gradientTransform="matrix(-0.68, 0, 0, 0.45, -1207.33, -2491.56)" xlink:href="#radial-gradient-19"/>
    <linearGradient id="linear-gradient-8" x1="86.47" y1="276.63" x2="86.47" y2="241.03" gradientTransform="matrix(-0.98, 0.18, 0.18, 0.98, 316.55, -209.44)" xlink:href="#linear-gradient"/>
    <linearGradient id="linear-gradient-9" x1="132.25" y1="277.89" x2="132.25" y2="240.97" gradientTransform="matrix(-0.98, 0.18, 0.18, 0.98, 316.55, -209.44)" xlink:href="#linear-gradient"/>
    <filter id="luminosity-noclip-3" x="262.81" y="51.96" width="26.15" height="31.05" filterUnits="userSpaceOnUse" color-interpolation-filters="sRGB">
      <feFlood flood-color="#fff" result="bg"/>
      <feBlend in="SourceGraphic" in2="bg"/>
    </filter>
    <mask id="mask-3" x="206" y="40.27" width="26.15" height="31.05" maskUnits="userSpaceOnUse">
      <g filter="url(#luminosity-noclip-3)">
        <g transform="translate(-56.8 -11.7)">
          <path d="M286.5,55.6s-14-4.6-20,4.1c0,0-1.2,11.4,6.1,21,0,0-9.4-.6-9.7-12s6.1-15.6,9.5-14.3C272.3,54.4,278.6,48.2,286.5,55.6Z"/>
        </g>
      </g>
    </mask>
    <radialGradient id="radial-gradient-33" cx="54.71" cy="501.84" r="14.02" gradientTransform="matrix(-0.97, -0.25, -0.25, 0.97, 458.92, -404.11)" xlink:href="#radial-gradient-22"/>
    <radialGradient id="radial-gradient-34" cx="111.67" cy="498.57" r="10.43" gradientTransform="matrix(-0.98, -0.2, -0.2, 0.98, 482.45, -390.78)" xlink:href="#radial-gradient-23"/>
    <radialGradient id="radial-gradient-35" cx="271.24" cy="-371.49" r="10.27" gradientTransform="matrix(-1, 0.04, 0.04, 1, 559.41, 436.27)" xlink:href="#radial-gradient-24"/>
    <linearGradient id="linear-gradient-10" x1="154.1" y1="525.01" x2="154.1" y2="484.08" gradientTransform="matrix(-1, 0.01, 0.01, 1, 428.78, -446.19)" xlink:href="#linear-gradient-4"/>
    <linearGradient id="linear-gradient-11" x1="110.29" y1="279.92" x2="107.57" y2="251.86" gradientTransform="matrix(-0.98, 0.18, 0.18, 0.98, 316.55, -209.44)" xlink:href="#linear-gradient-2"/>
    <filter id="luminosity-noclip-4" x="206.03" y="54.2" width="33.61" height="31.27" filterUnits="userSpaceOnUse" color-interpolation-filters="sRGB">
      <feFlood flood-color="#fff" result="bg"/>
      <feBlend in="SourceGraphic" in2="bg"/>
    </filter>
    <mask id="mask-4" x="149.22" y="42.52" width="33.61" height="31.27" maskUnits="userSpaceOnUse">
      <g filter="url(#luminosity-noclip-4)">
        <g transform="translate(-56.8 -11.7)">
          <path d="M239.6,64.2s-13.5-14.6-33.6-2c0,0,1.2-6.8,19-8C225,54.2,236.8,57.2,239.6,64.2Z"/>
        </g>
      </g>
    </mask>
    <radialGradient id="radial-gradient-36" cx="136.14" cy="260.53" r="19.17" gradientTransform="matrix(-0.98, 0.18, 0.18, 0.98, 316.91, -210.8)" xlink:href="#radial-gradient-22"/>
    <radialGradient id="radial-gradient-37" cx="183.41" cy="251.19" r="12.56" gradientTransform="matrix(-0.97, 0.23, 0.23, 0.97, 344.22, -207.73)" xlink:href="#radial-gradient-23"/>
    <radialGradient id="radial-gradient-38" cx="321.84" cy="-368.89" r="12.37" gradientTransform="matrix(-1, 0.04, 0.04, 1, 559.41, 436.27)" xlink:href="#radial-gradient-24"/>
    <radialGradient id="radial-gradient-39" cx="115.79" cy="288.77" r="13.25" gradientTransform="matrix(-0.98, 0.18, 0.18, 0.98, 316.55, -209.44)" xlink:href="#radial-gradient-24"/>
    <radialGradient id="radial-gradient-40" cx="168.21" cy="289.97" r="12.85" gradientTransform="matrix(0.4, -0.07, 0.18, 0.98, 152.92, -178.95)" xlink:href="#radial-gradient-24"/>
    <linearGradient id="linear-gradient-12" x1="143.74" y1="276.08" x2="143.74" y2="236.55" gradientTransform="matrix(-0.98, 0.18, 0.18, 0.98, 316.55, -209.44)" xlink:href="#linear-gradient"/>
  </defs>
  <title>monk</title>
  <g style="isolation: isolate">
    <g id="test">
      <g>
        <path d="M156.9,457.4l22.3,9.9a28.8,28.8,0,0,0,12.7,0s42.2-11.1,42.5-13.7c.1-.6,0-8.3,0-8.3-8.1-4-29.4-4.7-29.4-4.7L154.9,447S152.4,455.4,156.9,457.4Z" transform="translate(-56.8 -11.7)" fill="#c69c6d" stroke="#998675" stroke-miterlimit="10" stroke-width="2.25"/>
        <path d="M156.9,449.1l22.3,9.9a28.8,28.8,0,0,0,12.7,0s42.2-11.1,42.5-13.7-29.4-13-29.4-13L156.9,444S152.4,447.1,156.9,449.1Z" transform="translate(-56.8 -11.7)" stroke="#998675" stroke-miterlimit="10" stroke-width="2.25" fill="url(#radial-gradient)"/>
        <g>
          <path d="M215,386.1c16,10,1.3,25.3,16.3,50.7,0,0,2.9,6.7-7.2,9.5l-35,9.5a16.5,16.5,0,0,1-11.4-1.4c-.9-3.7-14.5-7.1-14.5-7.1s-3.9-8.9,1.8-13.2c9.3-7.2,23.7-16.3,23.7-16.3L183.3,396S207.5,381.4,215,386.1Z" transform="translate(-56.8 -11.7)" stroke="#d19766" stroke-miterlimit="10" fill="url(#radial-gradient-2)"/>
          <polygon points="119.8 442.6 120.5 431.1 120.5 430.8 120.7 430.7 126.3 428 121.1 431.4 121.3 431.1 122 442.6 119.8 442.6" fill="#d19766"/>
          <path d="M180.4,441.2s16.9-7.1,31.5,10.1l7.7-2.2s-11.6-21.5-31.2-14C182.4,437.4,180.4,439.8,180.4,441.2Z" transform="translate(-56.8 -11.7)" fill="#42210b"/>
          <path d="M180.4,441.2s-10.2-8.2-5.1-17.8c1.4-2.7,9.2-5,9.2-5l2.6-.2-3.8,2.5s-.5-.4-.5-.4c-1.5,2.5-3,8,.4,19.3Z" transform="translate(-56.8 -11.7)" fill="#42210b"/>
        </g>
        <path d="M225.9,421.7s-.8,19.5-6.3,27.4l5.3-1.6S230,430.5,225.9,421.7Z" transform="translate(-56.8 -11.7)" fill="#42210b"/>
      </g>
      <g>
        <path d="M365.8,464.3l-22.3,9.9a28.8,28.8,0,0,1-12.7,0s-42.2-11.1-42.5-13.7c-.1-.6,0-8.3,0-8.3,8.1-4,29.4-4.7,29.4-4.7l50.2,6.4S370.3,462.4,365.8,464.3Z" transform="translate(-56.8 -11.7)" fill="#c69c6d" stroke="#998675" stroke-miterlimit="10" stroke-width="2.25"/>
        <path d="M365.8,456,343.5,466a28.8,28.8,0,0,1-12.7,0s-42.2-11.1-42.5-13.7,29.4-13,29.4-13L365.8,451S370.3,454.1,365.8,456Z" transform="translate(-56.8 -11.7)" stroke="#998675" stroke-miterlimit="10" stroke-width="2.25" fill="url(#radial-gradient-3)"/>
        <g>
          <path d="M282.1,387.1c-1.3,8.6-1,15-.1,20.1,2.5,13.5,10,18.2,9.2,31.6,0,0-2.7,11.6,7.4,14.3l35,9.5a16.5,16.5,0,0,0,11.4-1.4c.9-3.7,14.5-7.1,14.5-7.1s3.9-8.9-1.8-13.2c-9.3-7.2-33.4-22.4-33.4-22.4l-12.1-37.9S283.4,378.4,282.1,387.1Z" transform="translate(-56.8 -11.7)" stroke="#d19766" stroke-miterlimit="10" fill="url(#radial-gradient-4)"/>
          <polygon points="287 449.6 287.8 438 288 438.4 282.8 434.9 288.4 437.6 288.6 437.7 288.6 438 289.3 449.6 287 449.6" fill="#d19766"/>
          <path d="M342.3,448.1s-16.9-7.1-31.5,10.1l-7.7-2.2s11.6-21.5,31.2-14C340.3,444.3,342.3,446.7,342.3,448.1Z" transform="translate(-56.8 -11.7)" fill="#42210b"/>
          <path d="M342.3,448.1s10.2-8.2,5.1-17.8c-1.4-2.7-9.2-5-9.2-5h-2.5l3.6,2.4s.6-.5.6-.4c1.5,2.5,3,8-.4,19.3Z" transform="translate(-56.8 -11.7)" fill="#42210b"/>
          <path d="M367.8,460.9" transform="translate(-56.8 -11.7)" fill="url(#radial-gradient-5)"/>
        </g>
        <path d="M288.9,426.8s8.8,21.3,14.3,29.2l-5.3-1.6S284.7,435.6,288.9,426.8Z" transform="translate(-56.8 -11.7)" fill="#42210b"/>
      </g>
      <path d="M203,289.8s46.8,3.1,78.4-12c12.4-6,46-115.7,16.8-118.9S203,289.8,203,289.8Z" transform="translate(-56.8 -11.7)" fill="#ff8a00" stroke="#d37107" stroke-miterlimit="10" stroke-width="2.25"/>
      <path d="M308.7,160.2s42.6,36.4,51.1,76.5c0,0,6.8,23.1-1.3,42.4,0,0-1.8,18.3-4.4,24s-5.3,9.8-10.8,16.4c0,0-8.2,13.3-27.5,5.1s-24.6-42.1-23.9-59.4c.2-4.3,6-24.7,14.7-28.5s-2-.1-2-.1c5.5-10.7,23.7-3.1,27.3-4.4l-21-3.7s-16.9-25.3-19.3-32.3C288.2,186.4,293.3,168.2,308.7,160.2Z" transform="translate(-56.8 -11.7)" fill="#ff8a00" stroke="#d37107" stroke-miterlimit="10" stroke-width="2.25"/>
      <path d="M281.4,277.8s23,42.5,27.3,85.7c.4,4.5,12.9,7.7,12.6,12.2-1.4,21.1-20.1,30-31.3,28.4-7.5-1.1-19.9-3.7-24.4-8.9s-3.2-13.9-6-15.7c-10.7-6.8-24.7-29.2-33.7-21.1-4.3,3.9-7.7,14.4-4.4,19.3,4.6,6.9-2,16.6-11.3,20.3s-29.3,5.1-40-9.5c-2.7-3.6,2.7-9,0-14.6-4.9-10.4-15.3-25.1-17.8-43.8-9.1-69,12.1-53,12.1-53s33.8,12.5,45.7,13.1C228.2,291.1,281.4,277.8,281.4,277.8Z" transform="translate(-56.8 -11.7)" fill="#ff8a00" stroke="#d37107" stroke-miterlimit="10" stroke-width="2.25"/>
      <path d="M154.9,352.6c4.6.7,2,20.4,2,20.4s37.9,5.3,68.9,0,54,12.5,77.3,0l-21.7-95.2c-29.5,14.5-86.6,14.5-86.6,14.5Z" transform="translate(-56.8 -11.7)" fill="#ff8a00" stroke="#d37107" stroke-miterlimit="10" stroke-width="2.25"/>
      <path d="M218.8,294.3a133.8,133.8,0,0,1-21.1-1.6c-20.6-3.3-31.8-10.3-32.3-10.6a3.5,3.5,0,0,1,3.7-5.9h0c.1.1,10.8,6.7,30.1,9.7s46.9,3,84.1-12a3.5,3.5,0,1,1,2.6,6.5C259.3,291,236.5,294.3,218.8,294.3Z" transform="translate(-56.8 -11.7)" fill="#e8e19e" stroke="#b2a756" stroke-miterlimit="10"/>
      <path d="M310.8,341.2a3.5,3.5,0,0,1-3.1-1.8c-10.7-19.7-25.7-59.4-26.3-61a3.5,3.5,0,0,1,6.6-2.5c.2.4,15.4,40.9,25.9,60.2a3.5,3.5,0,0,1-3.1,5.2Z" transform="translate(-56.8 -11.7)" fill="#e8e19e" stroke="#b2a756" stroke-miterlimit="10"/>
      <path d="M271.9,356.8a3.5,3.5,0,0,1-3.5-3.5c-.2-47.2,8.7-74.3,9-75.5a3.5,3.5,0,1,1,6.6,2.2c-2.8,8.4-8.8,35.9-8.7,73.2a3.5,3.5,0,0,1-3.5,3.5Z" transform="translate(-56.8 -11.7)" fill="#e8e19e" stroke="#b2a756" stroke-miterlimit="10"/>
      <g>
        <g>
          <g clip-path="url(#clip-path)">
            <rect x="8" y="67" width="226.1" height="221.08" fill="#f9a24d"/>
            <path d="M233.9,240A126.1,126.1,0,0,1,65.1,227.9l-4.3-4.8h3V77.7H263.2V73.2A126.3,126.3,0,0,1,233.9,240Z" transform="translate(-56.8 -11.7)" fill="#f9a24d"/>
            <path d="M233.5,239.4A125.6,125.6,0,0,1,57.2,217.7h6.5V77.7H262.6V73.6a125.6,125.6,0,0,1-29.1,165.7Z" transform="translate(-56.8 -11.7)" fill="#f9a34e"/>
            <path d="M233,238.7A124.8,124.8,0,0,1,57.8,217.2h5.9V77.7H261.9V74.1A124.8,124.8,0,0,1,233,238.7Z" transform="translate(-56.8 -11.7)" fill="#f9a34f"/>
            <path d="M232.5,238.1A124,124,0,0,1,58.4,216.7h5.3V77.7H261.2V74.5a124,124,0,0,1-28.7,163.7Z" transform="translate(-56.8 -11.7)" fill="#f9a450"/>
            <path d="M232,237.5a123.2,123.2,0,0,1-173-21.3h4.7V77.7H260.6V74.9A123.3,123.3,0,0,1,232,237.5Z" transform="translate(-56.8 -11.7)" fill="#f9a451"/>
            <path d="M231.6,236.9A122.5,122.5,0,0,1,59.7,215.8h4.1V77.7H259.9V75.3a122.5,122.5,0,0,1-28.4,161.6Z" transform="translate(-56.8 -11.7)" fill="#f9a552"/>
            <path d="M231.1,236.3a121.7,121.7,0,0,1-170.8-21h3.5V77.7H259.3v-2a121.7,121.7,0,0,1-28.2,160.6Z" transform="translate(-56.8 -11.7)" fill="#f9a553"/>
            <path d="M230.6,235.7A120.9,120.9,0,0,1,60.9,214.8h2.9V77.7H258.6V76.1a120.9,120.9,0,0,1-28,159.6Z" transform="translate(-56.8 -11.7)" fill="#f9a654"/>
            <path d="M230.1,235.1A120.2,120.2,0,0,1,61.5,214.3h2.3V77.7H258V76.5a120.2,120.2,0,0,1-27.8,158.6Z" transform="translate(-56.8 -11.7)" fill="#f9a655"/>
            <path d="M229.7,234.5A119.4,119.4,0,0,1,62.1,213.9h1.7V77.7H257.3v-.8a119.4,119.4,0,0,1-27.7,157.6Z" transform="translate(-56.8 -11.7)" fill="#f9a756"/>
            <path d="M229.2,233.9A118.6,118.6,0,0,1,62.7,213.4h1.1V77.7H256.7v-.4a118.6,118.6,0,0,1-27.5,156.5Z" transform="translate(-56.8 -11.7)" fill="#f9a757"/>
            <path d="M228.7,233.3A117.8,117.8,0,0,1,63.3,212.9h.5V77.7H252.7v-5l3.3,5a117.9,117.9,0,0,1-27.3,155.5Z" transform="translate(-56.8 -11.7)" fill="#f9a858"/>
            <path d="M228.2,232.7A117.1,117.1,0,0,1,63.9,212.4a118.4,118.4,0,0,1-6.9-9.8h6.7V77.7H252.1V73.2l3.3,5a117.1,117.1,0,0,1-27.1,154.5Z" transform="translate(-56.8 -11.7)" fill="#f9a859"/>
            <path d="M227.8,232.1A116.3,116.3,0,0,1,64.5,212a117.7,117.7,0,0,1-6.8-9.7h6.1V77.7H251.4V73.6l3.3,4.9a116.3,116.3,0,0,1-26.9,153.5Z" transform="translate(-56.8 -11.7)" fill="#f9a95a"/>
            <path d="M227.3,231.5a115.5,115.5,0,0,1-162.2-20,116.9,116.9,0,0,1-6.8-9.7h5.4V77.7h187V74.1l3.3,4.9a115.5,115.5,0,0,1-26.8,152.5Z" transform="translate(-56.8 -11.7)" fill="#f9a95b"/>
            <path d="M226.8,230.8A114.8,114.8,0,0,1,65.7,211a116.1,116.1,0,0,1-6.8-9.6h4.8V77.7H250.2V74.5l3.2,4.9a114.8,114.8,0,0,1-26.6,151.5Z" transform="translate(-56.8 -11.7)" fill="#f9aa5c"/>
            <path d="M226.3,230.2a114,114,0,0,1-160-19.7,115.3,115.3,0,0,1-6.7-9.5h4.1V77.7H249.5V75l3.2,4.8a114,114,0,0,1-26.4,150.4Z" transform="translate(-56.8 -11.7)" fill="#f9aa5d"/>
            <path d="M225.9,229.6A113.2,113.2,0,0,1,67,210.1a114.5,114.5,0,0,1-6.7-9.5h3.5V77.7H245.4v-7A113.2,113.2,0,0,1,225.9,229.6Z" transform="translate(-56.8 -11.7)" fill="#f9ab5e"/>
            <path d="M225.4,229A112.4,112.4,0,0,1,67.6,209.6a113.8,113.8,0,0,1-6.6-9.4h2.8V77.7H244.8V71.2A112.4,112.4,0,0,1,225.4,229Z" transform="translate(-56.8 -11.7)" fill="#f9ab5f"/>
            <path d="M224.9,228.4A111.7,111.7,0,0,1,68.2,209.1a113,113,0,0,1-6.6-9.4h2.2V86H58.6q2.6-4.8,5.8-9.3v1H244.2v-6A111.7,111.7,0,0,1,224.9,228.4Z" transform="translate(-56.8 -11.7)" fill="#f9ac60"/>
            <path d="M224.4,227.8A111,111,0,0,1,56.8,189.6h7V86.4H59.3q2.6-4.7,5.7-9.2v.5H243.6V72.1A110.9,110.9,0,0,1,224.4,227.8Z" transform="translate(-56.8 -11.7)" fill="#f9ac61"/>
            <path d="M224,227.2A110.2,110.2,0,0,1,57.5,189.3h6.3V86.8H60q2.6-4.7,5.7-9.1H243V72.6A110.1,110.1,0,0,1,224,227.2Z" transform="translate(-56.8 -11.7)" fill="#f9ad62"/>
            <path d="M223.5,226.6A109.5,109.5,0,0,1,58.2,188.9h5.6V87.2H60.6q2.6-4.7,5.7-9.1l3.2-4.4v4H242.4V73.1A109.4,109.4,0,0,1,223.5,226.6Z" transform="translate(-56.8 -11.7)" fill="#f9ad63"/>
            <path d="M223,226A108.7,108.7,0,0,1,58.9,188.6h4.9V87.5H61.3q2.6-4.6,5.6-9l3.2-4.3v3.5H241.8V73.6A108.6,108.6,0,0,1,223,226Z" transform="translate(-56.8 -11.7)" fill="#f9ae64"/>
            <path d="M222.5,225.4a107.9,107.9,0,0,1-163-37.1h4.2V87.9H62q2.6-4.6,5.6-9l3.1-4.3v3.1H241.2V74A107.8,107.8,0,0,1,222.5,225.4Z" transform="translate(-56.8 -11.7)" fill="#f9ae65"/>
            <path d="M222.1,224.8A107.1,107.1,0,0,1,60.3,187.9h3.5V88.3H62.7A106.2,106.2,0,0,1,74.7,71v6.7H240.6V74.5A107,107,0,0,1,222.1,224.8Z" transform="translate(-56.8 -11.7)" fill="#f9af66"/>
            <path d="M221.6,224.2A106.4,106.4,0,0,1,61,187.6h2.8V88.7h-.4A105.5,105.5,0,0,1,75.3,71.5v6.2H240V75A106.3,106.3,0,0,1,221.6,224.2Z" transform="translate(-56.8 -11.7)" fill="#f9af67"/>
            <path d="M221.1,223.5A105.6,105.6,0,0,1,61.6,187.2h2.1v-89H59.5q2-4.7,4.5-9.2A104.7,104.7,0,0,1,75.8,72v5.7H239.4V75.5A105.5,105.5,0,0,1,221.1,223.5Z" transform="translate(-56.8 -11.7)" fill="#f9b068"/>
            <path d="M220.6,222.9A104.8,104.8,0,0,1,62.3,186.9h1.4V98.5H60.2q2-4.6,4.5-9.1A103.9,103.9,0,0,1,76.4,72.5v5.2H238.7V75.9A104.7,104.7,0,0,1,220.6,222.9Z" transform="translate(-56.8 -11.7)" fill="#f9b069"/>
            <path d="M220.2,222.3A104,104,0,0,1,63,186.5h.7V108.2H57.3A103.4,103.4,0,0,1,77,73v4.7H238.1V76.4A104,104,0,0,1,220.2,222.3Z" transform="translate(-56.8 -11.7)" fill="#f9b16a"/>
            <path d="M219.7,221.7a103.3,103.3,0,0,1-156-35.5h.1V108.4H58.1A102.6,102.6,0,0,1,77.6,73.5v4.2H237.5v-.8A103.2,103.2,0,0,1,219.7,221.7Z" transform="translate(-56.8 -11.7)" fill="#f9b16b"/>
            <path d="M219.2,221.1A102.5,102.5,0,0,1,57.3,167h6.5V108.7h-5A101.9,101.9,0,0,1,78.2,74v3.7H236.9v-.3A102.4,102.4,0,0,1,219.2,221.1Z" transform="translate(-56.8 -11.7)" fill="#f9b26c"/>
            <path d="M218.7,220.5A101.7,101.7,0,0,1,58,166.8h5.7V108.9H59.5A101.1,101.1,0,0,1,78.8,74.5v3.2H233V73.8l3.3,4A101.6,101.6,0,0,1,218.7,220.5Z" transform="translate(-56.8 -11.7)" fill="#f9b26d"/>
            <path d="M218.3,219.9A100.9,100.9,0,0,1,58.8,166.6h5V109.2H60.3A100.3,100.3,0,0,1,79.4,75v2.7h153V74.3l3.3,4A100.9,100.9,0,0,1,218.3,219.9Z" transform="translate(-56.8 -11.7)" fill="#f9b36e"/>
            <path d="M217.8,219.3A100.2,100.2,0,0,1,59.5,166.4h4.3V128.2H56.9A99.8,99.8,0,0,1,80,75.5v2.2H228.4V71a101.3,101.3,0,0,1,6.7,7.7A100.1,100.1,0,0,1,217.8,219.3Z" transform="translate(-56.8 -11.7)" fill="#f9b36f"/>
            <path d="M217.3,218.7A99.4,99.4,0,0,1,60.3,166.2h3.5v-38H57.6A99,99,0,0,1,80.5,76v1.7H227.8V71.6a100.5,100.5,0,0,1,6.7,7.7A99.3,99.3,0,0,1,217.3,218.7Z" transform="translate(-56.8 -11.7)" fill="#f9b470"/>
            <path d="M216.8,218.1A98.6,98.6,0,0,1,61,166h2.8V128.3H58.4A98.2,98.2,0,0,1,81.1,76.5v1.2H227.3V72.1a99.7,99.7,0,0,1,6.6,7.6A98.6,98.6,0,0,1,216.8,218.1Z" transform="translate(-56.8 -11.7)" fill="#f9b471"/>
            <path d="M216.4,217.5A97.8,97.8,0,0,1,61.8,165.8h2V128.4H59.1A97.5,97.5,0,0,1,81.7,77v.7h145V72.6a98.9,98.9,0,0,1,6.6,7.6A97.8,97.8,0,0,1,216.4,217.5Z" transform="translate(-56.8 -11.7)" fill="#f9b572"/>
            <path d="M215.9,216.9A97,97,0,0,1,82.3,77.5v.2H226.2V73.2a98.2,98.2,0,0,1,6.5,7.5A97,97,0,0,1,215.9,216.9Z" transform="translate(-56.8 -11.7)" fill="#f9b573"/>
            <path d="M215.4,216.3A96.2,96.2,0,0,1,89.5,71v6.7H225.6v-4a97.4,97.4,0,0,1,6.4,7.5A96.2,96.2,0,0,1,215.4,216.3Z" transform="translate(-56.8 -11.7)" fill="#f9b674"/>
            <path d="M214.9,215.6A95.5,95.5,0,0,1,90.1,71.5v6.2h135V74.3a96.6,96.6,0,0,1,6.4,7.4A95.5,95.5,0,0,1,214.9,215.6Z" transform="translate(-56.8 -11.7)" fill="#f9b675"/>
            <path d="M214.5,215A94.7,94.7,0,0,1,90.6,72.1v5.6H224.5V74.8a95.8,95.8,0,0,1,6.3,7.3A94.7,94.7,0,0,1,214.5,215Z" transform="translate(-56.8 -11.7)" fill="#f9b776"/>
            <path d="M214,214.4A93.9,93.9,0,0,1,91.1,72.6v5.1H223.9V75.3a95,95,0,0,1,6.3,7.3A93.9,93.9,0,0,1,214,214.4Z" transform="translate(-56.8 -11.7)" fill="#f9b777"/>
            <path d="M213.5,213.8A93.2,93.2,0,0,1,91.7,73.2v4.5H223.4V75.9a94.2,94.2,0,0,1,6.2,7.2A93.2,93.2,0,0,1,213.5,213.8Z" transform="translate(-56.8 -11.7)" fill="#f9b878"/>
            <path d="M213,213.2A92.4,92.4,0,0,1,92.2,73.8v4H222.8V76.4a93.5,93.5,0,0,1,6.2,7.2A92.4,92.4,0,0,1,213,213.2Z" transform="translate(-56.8 -11.7)" fill="#f9b879"/>
            <path d="M212.6,212.6A91.6,91.6,0,0,1,92.7,74.3v3.4H222.3v-.8a92.7,92.7,0,0,1,6.1,7.1A91.6,91.6,0,0,1,212.6,212.6Z" transform="translate(-56.8 -11.7)" fill="#f9b97a"/>
            <path d="M212.1,212A90.8,90.8,0,0,1,93.3,74.9v2.8H215.1V71.2a90.9,90.9,0,0,1-3,140.8Z" transform="translate(-56.8 -11.7)" fill="#f9b97b"/>
            <path d="M211.6,211.4A90.1,90.1,0,0,1,93.8,75.4v2.3H214.6V71.8a90.2,90.2,0,0,1-3,139.6Z" transform="translate(-56.8 -11.7)" fill="#f9ba7c"/>
            <path d="M211.2,210.8A89.3,89.3,0,0,1,94.3,76v1.7H214.1V72.4a89.4,89.4,0,0,1-2.9,138.4Z" transform="translate(-56.8 -11.7)" fill="#f9ba7d"/>
            <path d="M210.7,210.2A88.5,88.5,0,0,1,94.9,76.5v1.2H213.6V73a88.6,88.6,0,0,1-2.9,137.2Z" transform="translate(-56.8 -11.7)" fill="#f9bb7e"/>
            <path d="M210.2,209.6a87.8,87.8,0,1,1-108-138.3v6.5H213.1V73.5a87.8,87.8,0,0,1-2.9,136Z" transform="translate(-56.8 -11.7)" fill="#f9bb7f"/>
            <path d="M209.7,209A87,87,0,0,1,102.7,71.8v5.9H212.6V74.1A87.1,87.1,0,0,1,209.7,209Z" transform="translate(-56.8 -11.7)" fill="#f9bc81"/>
            <path d="M209.3,208.3A86.2,86.2,0,0,1,103.1,72.4v5.3H212.1v-3a86.3,86.3,0,0,1-2.8,133.6Z" transform="translate(-56.8 -11.7)" fill="#f9bd82"/>
            <path d="M208.8,207.7A85.4,85.4,0,1,1,103.6,73v4.7h108V75.3a85.5,85.5,0,0,1-2.8,132.4Z" transform="translate(-56.8 -11.7)" fill="#f9bd83"/>
            <path d="M208.3,207.1A84.7,84.7,0,0,1,104.1,73.7v4.1h107V75.9a84.7,84.7,0,0,1-2.8,131.2Z" transform="translate(-56.8 -11.7)" fill="#f9be84"/>
            <path d="M207.8,206.5A83.9,83.9,0,0,1,104.6,74.3v3.5h106V76.5a84,84,0,0,1-2.8,130Z" transform="translate(-56.8 -11.7)" fill="#f9be85"/>
            <path d="M207.4,205.9A83.1,83.1,0,1,1,105,74.9v2.9h105v-.6a83.2,83.2,0,0,1-2.7,128.8Z" transform="translate(-56.8 -11.7)" fill="#f9bf86"/>
            <path d="M206.9,205.3A82.4,82.4,0,0,1,105.5,75.5v2.2H209.6a82.4,82.4,0,0,1-2.7,127.6Z" transform="translate(-56.8 -11.7)" fill="#f9bf87"/>
            <path d="M206.4,204.7A81.6,81.6,0,0,1,106,76.1v1.6h96.7V73.3q3.3,2.3,6.4,4.9a81.7,81.7,0,0,1-2.7,126.5Z" transform="translate(-56.8 -11.7)" fill="#f9c088"/>
            <path d="M205.9,204.1A80.8,80.8,0,1,1,106.5,76.7v1h95.8V74q3.3,2.3,6.3,4.9a80.9,80.9,0,0,1-2.7,125.3Z" transform="translate(-56.8 -11.7)" fill="#f9c089"/>
            <path d="M205.5,203.5A80,80,0,0,1,106.9,77.3v.4h94.9V74.6q3.2,2.2,6.3,4.8a80.1,80.1,0,0,1-2.6,124.1Z" transform="translate(-56.8 -11.7)" fill="#f9c18a"/>
            <path d="M205,202.9a79.3,79.3,0,0,1-97.6-125,80.2,80.2,0,0,1,6.6-4.7v4.5h80.7V71.1A79.3,79.3,0,0,1,205,202.9Z" transform="translate(-56.8 -11.7)" fill="#f9c18b"/>
            <path d="M204.5,202.3A78.5,78.5,0,1,1,107.9,78.5a79.4,79.4,0,0,1,6.6-4.6v3.8h79.9V71.8a78.5,78.5,0,0,1,10.1,130.5Z" transform="translate(-56.8 -11.7)" fill="#f9c28c"/>
            <path d="M204,201.7A77.7,77.7,0,1,1,121.7,70.7v7H194V72.5a77.8,77.8,0,0,1,10,129.2Z" transform="translate(-56.8 -11.7)" fill="#f9c28d"/>
            <path d="M203.6,201.1A77,77,0,1,1,122,71.4v6.3h71.6V73.1a77,77,0,0,1,9.9,127.9Z" transform="translate(-56.8 -11.7)" fill="#f9c38e"/>
            <path d="M203.1,200.4A76.2,76.2,0,1,1,122.4,72.1v5.6h70.9V73.8a76.2,76.2,0,0,1,9.8,126.6Z" transform="translate(-56.8 -11.7)" fill="#f9c38f"/>
            <path d="M202.6,199.8a75.4,75.4,0,1,1-79.9-127v4.9h70.2V74.5a75.5,75.5,0,0,1,9.7,125.3Z" transform="translate(-56.8 -11.7)" fill="#f9c490"/>
            <path d="M202.1,199.2A74.6,74.6,0,1,1,123.1,73.5v4.2h69.5V75.2a74.7,74.7,0,0,1,9.6,124.1Z" transform="translate(-56.8 -11.7)" fill="#f9c491"/>
            <path d="M201.7,198.6A73.9,73.9,0,1,1,123.4,74.2v3.5h68.8V75.8a73.9,73.9,0,0,1,9.5,122.8Z" transform="translate(-56.8 -11.7)" fill="#f9c592"/>
            <path d="M201.2,198A73.1,73.1,0,1,1,123.7,74.9v2.8h68V76.5A73.1,73.1,0,0,1,201.2,198Z" transform="translate(-56.8 -11.7)" fill="#f9c593"/>
            <path d="M200.7,197.4A72.3,72.3,0,1,1,124.1,75.6v2.2h67.3v-.5a72.4,72.4,0,0,1,9.3,120.2Z" transform="translate(-56.8 -11.7)" fill="#f9c694"/>
            <path d="M200.2,196.8A71.6,71.6,0,1,1,137.6,71.3v6.4h40.8V72.3a71.6,71.6,0,0,1,21.9,124.5Z" transform="translate(-56.8 -11.7)" fill="#f9c695"/>
            <path d="M199.8,196.2A70.8,70.8,0,1,1,137.8,72v5.7h40.3V73.1a70.8,70.8,0,0,1,21.6,123.1Z" transform="translate(-56.8 -11.7)" fill="#f9c796"/>
            <path d="M199.3,195.6A70,70,0,1,1,138,72.8v4.9h26.8V70.9a70,70,0,0,1,34.5,124.7Z" transform="translate(-56.8 -11.7)" fill="#f9c797"/>
            <path d="M198.8,195A69.2,69.2,0,1,1,138.2,73.5v4.2h26.5V71.7A69.2,69.2,0,0,1,198.8,195Z" transform="translate(-56.8 -11.7)" fill="#f9c898"/>
            <path d="M198.3,194.4A68.5,68.5,0,1,1,138.4,74.3v3.5h26.2V72.4a68.5,68.5,0,0,1,33.8,121.9Z" transform="translate(-56.8 -11.7)" fill="#f9c899"/>
            <path d="M197.9,193.8a67.7,67.7,0,1,1,11.7-95A67.7,67.7,0,0,1,197.9,193.8Z" transform="translate(-56.8 -11.7)" fill="#f9c99a"/>
            <path d="M197.4,193.1A66.9,66.9,0,1,1,209,99.2,66.9,66.9,0,0,1,197.4,193.1Z" transform="translate(-56.8 -11.7)" fill="#f9c99b"/>
            <path d="M196.9,192.5a66.2,66.2,0,1,1,11.4-92.9A66.2,66.2,0,0,1,196.9,192.5Z" transform="translate(-56.8 -11.7)" fill="#f9ca9c"/>
            <path d="M196.4,191.9a65.4,65.4,0,1,1,11.3-91.8A65.4,65.4,0,0,1,196.4,191.9Z" transform="translate(-56.8 -11.7)" fill="#f9ca9d"/>
            <path d="M196,191.3a64.6,64.6,0,1,1,11.2-90.7A64.6,64.6,0,0,1,196,191.3Z" transform="translate(-56.8 -11.7)" fill="#f9cb9e"/>
            <path d="M195.5,190.7a63.8,63.8,0,1,1,11-89.6A63.8,63.8,0,0,1,195.5,190.7Z" transform="translate(-56.8 -11.7)" fill="#f9cb9f"/>
            <path d="M195,190.1a63.1,63.1,0,1,1,10.9-88.5A63.1,63.1,0,0,1,195,190.1Z" transform="translate(-56.8 -11.7)" fill="#f9cca0"/>
            <path d="M194.5,189.5a62.3,62.3,0,1,1,10.8-87.4A62.3,62.3,0,0,1,194.5,189.5Z" transform="translate(-56.8 -11.7)" fill="#f9cca1"/>
            <circle cx="156.2" cy="140.4" r="61.5" transform="translate(-110.1 114.2) rotate(-38)" fill="#f9cda2"/>
            <circle cx="156.2" cy="140.4" r="60.8" transform="translate(-110.1 114.2) rotate(-38)" fill="#f9cda3"/>
            <circle cx="156.2" cy="140.4" r="60" transform="matrix(0.79, -0.62, 0.62, 0.79, -110.12, 114.16)" fill="#f9cea4"/>
            <circle cx="156.2" cy="140.4" r="59.2" transform="matrix(0.79, -0.62, 0.62, 0.79, -110.12, 114.16)" fill="#f9cea5"/>
            <circle cx="156.2" cy="140.4" r="58.4" transform="translate(-110.1 114.2) rotate(-38)" fill="#f9cfa6"/>
            <circle cx="156.2" cy="140.4" r="57.7" transform="translate(-110.1 114.2) rotate(-38)" fill="#f9cfa7"/>
            <circle cx="156.2" cy="140.4" r="56.9" transform="matrix(0.79, -0.62, 0.62, 0.79, -110.12, 114.16)" fill="#f9d0a8"/>
            <circle cx="156.2" cy="140.4" r="56.1" transform="translate(-110.1 114.2) rotate(-38)" fill="#f9d0a9"/>
            <circle cx="156.2" cy="140.4" r="55.4" transform="translate(-110.1 114.2) rotate(-38)" fill="#f9d1aa"/>
            <circle cx="156.2" cy="140.4" r="54.6" transform="translate(-110.1 114.2) rotate(-38)" fill="#f9d1ab"/>
            <circle cx="156.2" cy="140.4" r="53.8" transform="translate(-110.1 114.2) rotate(-38)" fill="#f9d2ac"/>
            <circle cx="156.2" cy="140.4" r="53" transform="translate(-110.1 114.2) rotate(-38)" fill="#f9d2ad"/>
            <circle cx="156.2" cy="140.4" r="52.3" transform="translate(-110.1 114.2) rotate(-38)" fill="#f9d3ae"/>
            <circle cx="156.2" cy="140.4" r="51.5" transform="translate(-110.1 114.2) rotate(-38)" fill="#f9d3af"/>
            <circle cx="156.2" cy="140.4" r="50.7" transform="translate(-110.1 114.2) rotate(-38)" fill="#f9d4b0"/>
            <circle cx="156.2" cy="140.4" r="50" transform="translate(-110.1 114.2) rotate(-38)" fill="#f9d4b1"/>
            <circle cx="156.2" cy="140.4" r="49.2" transform="translate(-110.1 114.2) rotate(-38)" fill="#f9d5b2"/>
            <circle cx="156.2" cy="140.4" r="48.4" transform="translate(-110.1 114.2) rotate(-38)" fill="#f9d5b3"/>
            <circle cx="156.2" cy="140.4" r="47.6" transform="translate(-110.1 114.2) rotate(-38)" fill="#f9d6b4"/>
          </g>
          <path d="M154.5,272.8a6.8,6.8,0,0,1-2-.3c-2-.6-3.3-2.2-3.7-4.8-4.9-28.8.7-59.3,1.8-65-5.1,2.2-29.5,12.3-49.3,12.3-6.4,0-12.3-1.1-16.9-3.8-15.1-9.1-5.6-33.1.7-48.9,2.1-5.2,3.8-9.7,4-11.9-1.7-9.9,2.2-22,4-26.7,2.5-6.9,10.4-14,17.7-20a71.6,71.6,0,0,0,8-8.2c-.3-1.2-1.6-6.3-2.7-9.3a3.1,3.1,0,0,1,.2-2.7c1.7-3.3,8.9-5.2,9.2-5.3h.2c8.5,2.2,11,16.5,9,25.8s-3.2,22-1.1,25.2c2.7-.7,19.6-4.7,23.7,1,.7.9,4.9,8.3,2.9,12.3-.9,1.7-2.6,2.5-5.3,2.4-18.2-.4-22.2,6.5-25.2,11.5a16.5,16.5,0,0,1-2.4,3.4,15,15,0,0,1-3.8,2.5l-.3,2.9,30.2-10.6c33.7-20.6,61.6-15.1,62.1-15l76.3,15.1-.6.7C286.6,160.4,180.5,272.8,154.5,272.8ZM152,201.1l-.2,1c-.1.3-7.4,33.9-2,65.6.4,2.2,1.4,3.5,3,4,20.5,6.2,127.9-106.4,137.1-116.1l-74.5-14.8c-.3-.1-27.9-5.6-61.5,14.9h-.1l-31.8,11.1.5-5h.3a14.4,14.4,0,0,0,3.8-2.5,15.8,15.8,0,0,0,2.2-3.2c2.9-4.9,7.3-12.4,26.1-12,2.2,0,3.7-.6,4.4-1.9,1.7-3.2-1.9-10-2.8-11.2-4-5.4-22.8-.6-23-.5h-.3l-.2-.2c-3-3.7-.9-18.8.7-26.3s-.4-22.5-8.1-24.6c-1,.3-7.1,2.1-8.5,4.8a2.1,2.1,0,0,0-.1,1.8c1.3,3.4,2.8,9.4,2.8,9.6v.2l-.2.2a74.2,74.2,0,0,1-8.2,8.5c-7.2,6-14.9,13-17.4,19.6-1.7,4.7-5.6,16.5-3.9,26.2h0c-.1,2.4-1.9,6.8-4.1,12.3-6.2,15.5-15.5,39-1.1,47.7,19.5,11.7,65.7-8.7,66.1-8.9Z" transform="translate(-56.8 -11.7)" fill="#d19766"/>
        </g>
        <path d="M130.7,131.4s-10,5.8-12.5,17.9c-1.7,8.4-6,8.4-6,8.4s1.7-15.7-11.8-20.2l1.8-11.2,16.3-7,10.5-6.7S128.1,123.4,130.7,131.4Z" transform="translate(-56.8 -11.7)" fill="url(#radial-gradient-6)"/>
        <path d="M106.8,134.7a31.8,31.8,0,0,1,4.3,5.5,19.7,19.7,0,0,1,2.5,6.1,16.3,16.3,0,0,1,.1,6.5,27.2,27.2,0,0,1-2.2,6.4,16.1,16.1,0,0,0,3.6-6.1,14.1,14.1,0,0,0,.3-7.1A17.8,17.8,0,0,0,106.8,134.7Z" transform="translate(-56.8 -11.7)" fill="#d19766"/>
        <path d="M110.9,129.6c1.2-2.3,2.4-4.7,3.4-7.1l-.3.3a78.8,78.8,0,0,0,7.1-3.9,39.3,39.3,0,0,0,6.5-4.8,11.7,11.7,0,0,0,1.4-1.6,4.3,4.3,0,0,0,.9-2.1,8.1,8.1,0,0,0-.9-4c-1.3-2.5-8.6-7.6-12.2-7.6,2.4,1.3,10.2,5.8,11.1,8.1a7.3,7.3,0,0,1,.5,3.4,6.1,6.1,0,0,1-2,2.7,50.3,50.3,0,0,1-6.2,4.7l-6.7,4.2h-.2v.2C112.4,124.7,111.6,127.1,110.9,129.6Z" transform="translate(-56.8 -11.7)" fill="#d19766"/>
        <path d="M103.7,132.9c1.2-2.3,2.4-4.7,3.4-7.1l-.3.3a77.9,77.9,0,0,0,7.1-3.9,39.3,39.3,0,0,0,6.5-4.8,11.4,11.4,0,0,0,1.4-1.6,4.3,4.3,0,0,0,.9-2.1,9.9,9.9,0,0,0-.7-4.5c-1.3-2.5-6.9-5.6-9.5-6.4,2.4,1.3,7.4,5.1,8.3,7.3a7.3,7.3,0,0,1,.5,3.4,6.1,6.1,0,0,1-2,2.7A50.7,50.7,0,0,1,113,121l-6.7,4.2h-.2v.2C105.2,128,104.4,130.4,103.7,132.9Z" transform="translate(-56.8 -11.7)" fill="#d19766"/>
        <path d="M124.6,95.2c-.5.1-4.6-.1-5.1.1a1.9,1.9,0,0,0-.8.5l-.4.6a24.4,24.4,0,0,1-1.5,2.4,17.8,17.8,0,0,1-4,4.1,16.4,16.4,0,0,0,4.5-3.8l1.7-2.3.4-.6.4-.2c.4-.1,4.4,0,4.8,0a15.8,15.8,0,0,1,5.7,1,8,8,0,0,1,2.4,1.3,1.5,1.5,0,0,1,.5.8c0,.1,0,.1,0,.2v1a16.7,16.7,0,0,1-3.9,7.3l.5,1.9c2.3-2.5,4.4-5.5,5-9,0-.2.1-.5.1-.8v-.3a2.3,2.3,0,0,0-1.1-2.1,8.4,8.4,0,0,0-2.9-1.4A17,17,0,0,0,124.6,95.2Zm-5.8,30.6c.3-2.4.5-4.7.7-7.1l-.9.7C118.6,121.4,118.6,123.6,118.8,125.7Z" transform="translate(-56.8 -11.7)" fill="#d19766"/>
      </g>
      <path d="M157.3,356.8s62.4-42.7,77.2-87.3c6.2-18.8,46.7-59.3,46.7-59.3l27.5-50L151.9,345.6Z" transform="translate(-56.8 -11.7)" fill="#42210b" opacity="0.2"/>
      <path d="M294.1,133.1S140.2,219.3,128.9,262l7.8,11.8s-16.6,15.2-11.6,19.8,7.5-4.6,14.2,9.4-22.4,24.1,12.5,49.4c11,8,160.4-197,160.4-197l-4.8-4s2.5-4.4,2.1-6.7C308.5,137.9,306.7,126.1,294.1,133.1Z" transform="translate(-56.8 -11.7)" fill="#ff8a00" stroke="#d37107" stroke-miterlimit="10" stroke-width="2.25"/>
      <path d="M196,140.8l.9,1.1c3.1,3.7,5.5,12.6,30.8,16.9l13.4,4.7s20.7-7.7,30.5-12.3c42-19.6,25.8-20.7,25.8-20.7l-10.4,4.5" transform="translate(-56.8 -11.7)" fill="#42210b" opacity="0.2"/>
      <polygon points="182.3 167.5 76.1 256.4 79.9 262.2 182.3 167.5" fill="#42210b" opacity="0.2"/>
      <path d="M180.2,255l-46.7,37.8s12.1,7.4,5.8,25.3S180.2,255,180.2,255Z" transform="translate(-56.8 -11.7)" fill="#42210b" opacity="0.2"/>
      <g>
        <line x1="54.7" y1="154.9" x2="68.8" y2="149" fill="url(#radial-gradient-7)"/>
        <polygon points="54.7 154.9 68.6 148.5 69 149.4 54.7 154.9" fill="#d19766"/>
      </g>
      <path d="M125.6,190.7l-.7-1a7.3,7.3,0,0,1-.8-1.2l-.8-1.7-.8-2.1c-.2-.8-.4-1.6-.6-2.4s-.3-1.7-.4-2.7-.2-1.8-.2-2.8-.1-1.9,0-2.8,0-1.8.1-2.7.3-3.4.5-4.7.8-4.6.8-4.6l1,.2-.3,1.2c-.2.8-.4,1.9-.6,3.3s-.5,3-.6,4.7-.2,1.7-.2,2.7-.1,1.8,0,2.7.1,1.8.1,2.7.2,1.8.3,2.6.3,1.7.5,2.4l.7,2.1.8,1.7a7.4,7.4,0,0,0,.7,1.3Z" transform="translate(-56.8 -11.7)" fill="#d19766"/>
      <path d="M170.1,164.8l-.9,1.5-1,1.8-1.3,2.3-1.5,2.8-1.6,3.1-3.4,6.9-3.2,6.9-2.8,6.1-2.6,5.9-.9-.4,2.8-5.9,2.9-6,3.4-6.8,3.5-6.8,1.7-3.1,1.5-2.7,1.4-2.3,1.1-1.7Z" transform="translate(-56.8 -11.7)" fill="#d19766"/>
      <path d="M162.5,170.3l-1,5.2c-.1.8-.4,1.6-.6,2.5l-.7,2.8c-.2,1-.6,1.9-.9,2.9l-1,3c-.3,1-.7,2-1.1,3l-1.1,2.8c-.8,1.8-1.4,3.5-2.1,5l-1.6,3.5-.6,1.3-.9-.5.7-1.3,1.7-3.4c.7-1.4,1.4-3.1,2.2-4.9l1.2-2.8,1.2-2.9,1.1-2.9c.3-1,.7-1.9,1-2.9l.8-2.7c.2-.9.5-1.7.7-2.4Z" transform="translate(-56.8 -11.7)" fill="#d19766"/>
      <ellipse cx="318.7" cy="283.9" rx="21.2" ry="41.2" transform="translate(-129.5 102) rotate(-18.2)" fill="#754107" stroke="#d37107" stroke-miterlimit="10" stroke-width="2.25"/>
      <path d="M318.7,279.1l11.5-15.2s-10.7-28.3-27.1-17.2l-12.9,10.1Z" transform="translate(-56.8 -11.7)" stroke="#d19766" stroke-miterlimit="10" fill="url(#radial-gradient-8)"/>
      <path d="M299.1,247.4s19.9-8,32.9,25.3c0,0,13,44.3-1.8,54.5,0,0,10.5.1,13.2-12C348,294.3,335,228.5,299.1,247.4Z" transform="translate(-56.8 -11.7)" fill="#ff8a00" stroke="#d37107" stroke-miterlimit="10" stroke-width="2.25"/>
      <path d="M299.1,258.8c.9-13.4-20.9-5.2-22.7-3.8s-9.9,16.4-9.9,16.4c-3.5,3.4,2,12.6,11.8,7.1a142.2,142.2,0,0,0,13.2,18.2c6.9,7.7,27.3-.2,31.1-16Z" transform="translate(-56.8 -11.7)" stroke="#d19766" stroke-miterlimit="10" fill="url(#radial-gradient-9)"/>
      <path d="M329.7,232.4a14.5,14.5,0,0,1,2.7-.2,20.7,20.7,0,0,1,7,1.2,20,20,0,0,1,4.3,2.1,21.9,21.9,0,0,1,4.1,3.3,27.7,27.7,0,0,1,3.6,4.4c.5.8,1.1,1.6,1.5,2.5l.7,1.3.6,1.3c.4.9.8,1.8,1.1,2.7s.7,1.8.9,2.8.6,1.8.8,2.8.5,1.8.7,2.7l.5,2.7.4,2.6c.3,1.7.4,3.3.6,4.7s.2,2.8.3,4,.1,2.2.1,3.1v2.7h-2.3s0-1,0-2.7,0-1.9,0-3-.1-2.5-.2-3.9-.2-3-.4-4.6l-.3-2.5-.4-2.6c-.1-.9-.3-1.8-.5-2.7s-.4-1.8-.7-2.7-.5-1.8-.8-2.7-.6-1.8-1-2.7l-.5-1.3-.6-1.3c-.4-.9-.9-1.7-1.4-2.5a26.9,26.9,0,0,0-3.3-4.4,21.3,21.3,0,0,0-3.9-3.4,19.6,19.6,0,0,0-4.1-2.2,20.5,20.5,0,0,0-6.8-1.4A14.5,14.5,0,0,0,329.7,232.4Z" transform="translate(-56.8 -11.7)" fill="#d37107"/>
      <path d="M219.4,194.3s.1.1,0,.3l-.6.8-2.4,2.7c-2.1,2.3-5.3,5.5-9.1,9.3-7.6,7.6-17.9,17.6-28.3,27.6-20.7,19.9-41.6,39.6-41.6,39.6l-1.5-1.7s21.3-19.3,42.3-38.8c10.5-9.7,21-19.5,28.8-27,3.9-3.7,7.1-6.9,9.3-9.1l2.5-2.7C219.4,194.8,219.6,194.3,219.4,194.3Z" transform="translate(-56.8 -11.7)" fill="#d37107"/>
      <polygon points="251.4 140.5 195.1 201.6 249.7 139 251.4 140.5" fill="#d37107"/>
      <polygon points="74.6 282.3 117.1 248.4 76 284 74.6 282.3" fill="#d37107"/>
      <path d="M138,318.5a8.5,8.5,0,0,0-.2,1,6,6,0,0,0,.2,2.7,1.6,1.6,0,0,0,1,1,4.4,4.4,0,0,0,2.2,0,21.6,21.6,0,0,0,5.8-2.6,74.4,74.4,0,0,0,6.5-4.4l3.4-2.7,3.5-2.9,3.6-3.1,3.6-3.2,7.2-6.7,3.6-3.4,3.5-3.4,6.7-6.7,6.2-6.4,5.5-5.8,4.6-4.9,3.5-3.8,3.1-3.3-3,3.4-3.5,3.9-4.5,5-5.4,5.9-6.1,6.5-6.6,6.9-3.4,3.5-3.5,3.5-7.1,6.9-3.5,3.3-3.5,3.1-3.5,3-3.4,2.8a75.9,75.9,0,0,1-6.6,4.7,23.4,23.4,0,0,1-6.4,3,6.3,6.3,0,0,1-3.3,0,3.8,3.8,0,0,1-2.3-2.2,7.9,7.9,0,0,1-.4-3.8l.2-1V318Z" transform="translate(-56.8 -11.7)" fill="#d37107"/>
      <polygon points="220.7 266.1 233.5 253.9 222.3 267.6 220.7 266.1" fill="#d19766"/>
      <polygon points="243.2 261.1 228.3 277.8 226.7 276.2 243.2 261.1" fill="#d19766"/>
      <polygon points="251.9 268.3 237.5 287.1 235.7 285.6 251.9 268.3" fill="#d19766"/>
      <path d="M221.3,372.8a13.8,13.8,0,0,1-.6,4.9l-.4,1.2-.5,1.1a15.1,15.1,0,0,1-1.2,2.1,16.9,16.9,0,0,1-7.3,5.8l-1,.5-1.1.4-2.2.7-2.2.5-2.2.4-4.5.4h-4.5l4.5-.3,4.4-.6,2.2-.5,2.2-.6,2.1-.8,1-.4,1-.5a15.5,15.5,0,0,0,6.4-5.7,13.4,13.4,0,0,0,.9-1.9l.4-1,.3-1a12,12,0,0,0,.2-4.1Z" transform="translate(-56.8 -11.7)" fill="#d37107"/>
      <path d="M260.3,378.5a72.4,72.4,0,0,0,6.6,5.7,69.6,69.6,0,0,0,7.2,4.9,50.3,50.3,0,0,0,7.9,3.8,31.3,31.3,0,0,0,8.6,1.8,31.6,31.6,0,0,1-8.8-1.2,51.1,51.1,0,0,1-8.3-3.3,71,71,0,0,1-7.7-4.5,74.1,74.1,0,0,1-7.1-5.4Z" transform="translate(-56.8 -11.7)" fill="#d37107"/>
    </g>
    <g id="test2">
      <g>
        <g>
          <path d="M161.9,465.2l22.8,10.1a29.3,29.3,0,0,0,13,0s43.1-11.3,43.4-14c.1-.6,0-8.5,0-8.5-8.3-4.1-30-4.8-30-4.8l-51.2,6.5S157.4,463.2,161.9,465.2Z" transform="translate(-56.8 -11.7)" fill="#c69c6d" stroke="#998675" stroke-miterlimit="10" stroke-width="2.25"/>
          <path d="M161.9,456.7l22.8,10.1a29.3,29.3,0,0,0,13,0s43.1-11.3,43.4-14-30-13.3-30-13.3l-49.2,11.9S157.4,454.7,161.9,456.7Z" transform="translate(-56.8 -11.7)" stroke="#998675" stroke-miterlimit="10" stroke-width="2.25" fill="url(#radial-gradient-10)"/>
          <g>
            <path d="M226.1,392.4c16.3,10.2-3.6,25.8,11.7,51.7,0,0,3,6.9-7.4,9.7l-35.7,9.7a16.8,16.8,0,0,1-11.6-1.5c-.9-3.8-14.8-7.2-14.8-7.2s-4-9,1.9-13.5c9.5-7.3,24.2-16.6,24.2-16.6l.3-30.6S218.5,387.6,226.1,392.4Z" transform="translate(-56.8 -11.7)" stroke="#d19766" stroke-miterlimit="10" fill="url(#radial-gradient-11)"/>
            <polygon points="125.2 450.4 125.9 438.5 126 438.3 126.1 438.2 131.8 435.4 126.6 438.9 126.8 438.5 127.5 450.4 125.2 450.4" fill="#d19766"/>
            <path d="M185.9,448.7s17.3-7.3,32.1,10.4l7.8-2.3s-11.8-22-31.8-14.3C188,444.8,185.9,447.2,185.9,448.7Z" transform="translate(-56.8 -11.7)" fill="#42210b"/>
            <path d="M185.9,448.7s-10.4-8.4-5.2-18.2c1.5-2.8,9.4-5.1,9.4-5.1l2.6-.2-3.9,2.5s-.5-.4-.6-.4c-1.6,2.6-3,8.2.4,19.7Z" transform="translate(-56.8 -11.7)" fill="#42210b"/>
            <path d="M159.8,461.7" transform="translate(-56.8 -11.7)" fill="url(#radial-gradient-12)"/>
          </g>
          <path d="M232.3,428.8s-.8,19.9-6.5,27.9l5.5-1.6S236.5,437.8,232.3,428.8Z" transform="translate(-56.8 -11.7)" fill="#42210b"/>
        </g>
        <path d="M302.3,281.9s-47.6,73.8-56.7,82.1c-4.4,4-7.8,14.7-4.5,19.7,4.7,7-2,16.9-11.6,20.8s-29.9,5.2-40.8-9.6c-2.7-3.7,2.7-9.2,0-14.9-5-10.6-15.6-25.6-18.2-44.7-9.3-70.5,12.3-54.1,12.3-54.1s34.5,12.7,46.6,13.4C248,295.5,302.3,281.9,302.3,281.9Z" transform="translate(-56.8 -11.7)" fill="#ff8a00" stroke="#d37107" stroke-miterlimit="10" stroke-width="2.25"/>
        <path d="M240.9,378.9a14.1,14.1,0,0,1-.6,5L240,385l-.5,1.1a15.4,15.4,0,0,1-1.2,2.1,17.3,17.3,0,0,1-7.4,5.9l-1.1.5-1.1.4-2.2.7-2.3.5-2.3.4-4.6.4h-4.6l4.6-.3,4.5-.7,2.2-.5,2.2-.6,2.1-.8,1-.4,1-.5a15.9,15.9,0,0,0,6.5-5.8,13.7,13.7,0,0,0,1-1.9l.4-1,.3-1a12.2,12.2,0,0,0,.2-4.1Z" transform="translate(-56.8 -11.7)" fill="#d37107"/>
        <path d="M190.2,380.6c.9,1.9,1.8,3.8,2.7,5.7l1.5,2.8a9.4,9.4,0,0,0,1.9,2.5,9.6,9.6,0,0,1-2.4-2.1l-2-2.5c-1.3-1.7-2.5-3.4-3.8-5.2Z" transform="translate(-56.8 -11.7)" fill="#d37107"/>
      </g>
      <g>
        <g>
          <path d="M329.8,465.2,307,475.3a29.4,29.4,0,0,1-13,0s-43.1-11.3-43.4-14c-.1-.6,0-8.5,0-8.5,8.3-4.1,30-4.8,30-4.8l51.2,6.5S334.3,463.2,329.8,465.2Z" transform="translate(-56.8 -11.7)" fill="#c69c6d" stroke="#998675" stroke-miterlimit="10" stroke-width="2.25"/>
          <path d="M329.8,456.7,307,466.9a29.4,29.4,0,0,1-13,0s-43.1-11.3-43.4-14,30-13.3,30-13.3l49.2,11.9S334.3,454.7,329.8,456.7Z" transform="translate(-56.8 -11.7)" stroke="#998675" stroke-miterlimit="10" stroke-width="2.25" fill="url(#radial-gradient-13)"/>
          <g>
            <path d="M265.5,392.4c-16.3,10.2,3.6,25.8-11.7,51.7,0,0-3,6.9,7.4,9.7l35.7,9.7a16.8,16.8,0,0,0,11.6-1.5c.9-3.8,14.8-7.2,14.8-7.2s4-9-1.9-13.5c-9.5-7.3-24.2-16.6-24.2-16.6l-.3-30.6S273.2,387.6,265.5,392.4Z" transform="translate(-56.8 -11.7)" stroke="#d19766" stroke-miterlimit="10" fill="url(#radial-gradient-14)"/>
            <polygon points="250.6 450.4 251.3 438.5 251.5 438.9 246.2 435.4 251.9 438.2 252.1 438.3 252.1 438.5 252.8 450.4 250.6 450.4" fill="#d19766"/>
            <path d="M305.8,448.7s-17.3-7.3-32.1,10.4l-7.8-2.3s11.8-22,31.8-14.3C303.7,444.8,305.8,447.2,305.8,448.7Z" transform="translate(-56.8 -11.7)" fill="#42210b"/>
            <path d="M305.8,448.7s10.4-8.4,5.2-18.2c-1.5-2.8-9.4-5.1-9.4-5.1l-2.6-.2,3.9,2.5s.5-.4.6-.4c1.6,2.6,3,8.2-.4,19.7Z" transform="translate(-56.8 -11.7)" fill="#42210b"/>
            <path d="M331.8,461.7" transform="translate(-56.8 -11.7)" fill="url(#radial-gradient-15)"/>
          </g>
          <path d="M259.4,428.8s.8,19.9,6.5,27.9l-5.5-1.6S255.1,437.8,259.4,428.8Z" transform="translate(-56.8 -11.7)" fill="#42210b"/>
        </g>
        <path d="M189.3,281.9S236.9,355.7,246,364c4.4,4,7.8,14.7,4.5,19.7-4.7,7,2,16.9,11.6,20.8s29.9,5.2,40.8-9.6c2.7-3.7-2.7-9.2,0-14.9,5-10.6,9.5-35,10.9-54.2,3.1-40.4-5.1-44.5-5.1-44.5s-34.5,12.7-46.6,13.4C243.6,295.5,189.3,281.9,189.3,281.9Z" transform="translate(-56.8 -11.7)" fill="#ff8a00" stroke="#d37107" stroke-miterlimit="10" stroke-width="2.25"/>
        <path d="M252.9,379.2a12.2,12.2,0,0,0,.2,4.1l.3,1,.4,1a13.6,13.6,0,0,0,1,1.9,15.9,15.9,0,0,0,6.5,5.8l1,.5,1,.4,2.1.8,2.2.6,2.2.5,4.5.7,4.6.3h-4.6l-4.6-.4-2.3-.4-2.3-.5L263,395l-1.1-.4-1.1-.5a17.3,17.3,0,0,1-7.4-5.9,15.4,15.4,0,0,1-1.2-2.1l-.5-1.1-.4-1.2a14.1,14.1,0,0,1-.6-5Z" transform="translate(-56.8 -11.7)" fill="#d37107"/>
        <path d="M303.4,381.7c-1.2,1.8-2.5,3.5-3.8,5.2l-2,2.5a9.6,9.6,0,0,1-2.4,2.1,9.4,9.4,0,0,0,1.9-2.5l1.5-2.8c1-1.9,1.9-3.8,2.7-5.7Z" transform="translate(-56.8 -11.7)" fill="#d37107"/>
      </g>
      <path d="M220.8,294.2s47.7,3.2,80-12.3c12.7-6.1,47-118.1,17.1-121.3S220.8,294.2,220.8,294.2Z" transform="translate(-56.8 -11.7)" fill="#ff8a00" stroke="#d37107" stroke-miterlimit="10" stroke-width="2.25"/>
      <g>
        <path d="M320.4,150.9s46.5,33.7,58.8,79.2c0,0,17.5,51.1-34.1,74.7-35.3,16.2-26.5-55.2-22.1-67.5.8-2.1,5.1.4,6.1-6,.2-1.1,4.5,0,4.5,0s-7.8-17.1-10.3-23.3" transform="translate(-56.8 -11.7)" fill="#ff8a00" stroke="#d37107" stroke-miterlimit="10" stroke-width="2.25"/>
        <path d="M324,235.2s-2.5,41.3,4,63.2c3.7,12.5,4.2,8.7,10.6,9.3,0,0-.4,5.5-5.2,6.4l-11.7,3.2C310.6,301,312,247.7,324,235.2Z" transform="translate(-56.8 -11.7)" fill="#ff8a00" stroke="#d37107" stroke-linecap="round" stroke-linejoin="round" stroke-width="2.25"/>
        <path d="M343.5,248.7q-3-4.1-5.8-8.2l-2.7-4.2a41.6,41.6,0,0,1-2.5-4.5l2.1-.8a40,40,0,0,0,1.9,4.5l2.2,4.5Q341,244.3,343.5,248.7Z" transform="translate(-56.8 -11.7)" fill="#d37107"/>
        <path d="M332.4,313.1c-.8-1.5-1.4-3-2-4.6s-1.2-3.1-1.7-4.7c-1.1-3.2-2.1-6.4-2.9-9.7a1.1,1.1,0,1,1,2.2-.6h0c.5,3.3,1.1,6.6,1.8,9.8.4,1.6.7,3.2,1.2,4.9S331.8,311.5,332.4,313.1Z" transform="translate(-56.8 -11.7)" fill="#d37107"/>
        <path d="M325.4,242.9c.8,5.7,1.8,11.5,3,17.1a151.7,151.7,0,0,0,4.6,16.7,62.3,62.3,0,0,0,7.4,15.4,19.3,19.3,0,0,0,5.9,5.7,9.7,9.7,0,0,0,7.6.9,1.1,1.1,0,0,1,.6,2.2h-.1a12,12,0,0,1-4.7.2,12.2,12.2,0,0,1-4.4-1.6,21,21,0,0,1-6.3-6.4,63.6,63.6,0,0,1-7.1-16,152.5,152.5,0,0,1-4.1-16.9C326.8,254.4,326,248.6,325.4,242.9Z" transform="translate(-56.8 -11.7)" fill="#d37107"/>
      </g>
      <path d="M310.5,184.5a37.3,37.3,0,0,0-5.1,10.9,94.7,94.7,0,0,0-2.8,11.7,218.5,218.5,0,0,0-2.7,24q-.4,6-.5,12.1c-.1,4-.2,8.1-.2,12.1s0,8.1.1,12.1.2,8.1.3,12.1V279c.9,2.9,1.7,5.8,2.5,8.7s1.5,5.8,2.3,8.7l1,4.4c.3,1.5.6,3,.9,4.4s1.2,5.9,1.5,9c-1.3-2.7-2.4-5.6-3.6-8.4l-1.6-4.2-1.5-4.3c-1-2.9-2-5.7-2.8-8.6s-1.8-5.7-2.6-8.6v-.5c-.3-8.2-.3-16.3-.1-24.4s.7-16.2,1.5-24.3q.6-6.1,1.5-12.1c.6-4,1.4-8,2.3-12a85.3,85.3,0,0,1,3.6-11.7A35.4,35.4,0,0,1,310.5,184.5Z" transform="translate(-56.8 -11.7)" fill="#d37107"/>
      <path d="M171.7,358.3c4.7.7,2.1,20.8,2.1,20.8s38.7,5.4,70.3,0,36,12.8,59.7,0l-3.1-97.1c-30.1,14.8-88.3,14.8-88.3,14.8Z" transform="translate(-56.8 -11.7)" fill="#ff8a00" stroke="#d37107" stroke-miterlimit="10" stroke-width="2.25"/>
      <g opacity="0.2">
        <path d="M294.5,362.2a3.6,3.6,0,0,1-3.7-3.5c-1.6-48.1,6.6-76.1,7-77.3a3.6,3.6,0,1,1,6.8,2.1c-.1.3-8.2,28.1-6.7,75a3.6,3.6,0,0,1-3.5,3.7Z" transform="translate(-56.8 -11.7)" fill="#42210b"/>
      </g>
      <path d="M236.9,298.7a136.6,136.6,0,0,1-21.5-1.6c-21-3.4-32.5-10.5-33-10.8a3.6,3.6,0,0,1,3.8-6h0c.1.1,11,6.8,30.7,9.9s47.9,3,85.8-12.2a3.6,3.6,0,0,1,2.7,6.6C278.2,295.4,255,298.7,236.9,298.7Z" transform="translate(-56.8 -11.7)" fill="#e8e19e" stroke="#b2a756" stroke-miterlimit="10"/>
      <g opacity="0.3">
        <path d="M303.7,353.7a3.6,3.6,0,0,1-2.3-2.9c-2.9-22.7-2.5-65.9-2.5-67.8a3.6,3.6,0,1,1,7.1.1c0,.4-.4,44.6,2.4,66.8a3.6,3.6,0,0,1-4.8,3.8Z" transform="translate(-56.8 -11.7)" fill="#42210b"/>
      </g>
      <path d="M308.7,352.5a3.6,3.6,0,0,1-2.4-2.7c-4.4-22.4-6.8-65.6-6.9-67.5a3.6,3.6,0,1,1,7.1-.4c0,.4,2.5,44.5,6.8,66.5a3.6,3.6,0,0,1-4.6,4.1Z" transform="translate(-56.8 -11.7)" fill="#e8e19e" stroke="#b2a756" stroke-miterlimit="10"/>
      <path d="M291.1,362.6a3.6,3.6,0,0,1-3.6-3.6c-.2-48.1,8.8-75.9,9.2-77a3.6,3.6,0,1,1,6.8,2.3c-2.8,8.6-9,36.6-8.9,74.7a3.6,3.6,0,0,1-3.6,3.6Z" transform="translate(-56.8 -11.7)" fill="#e8e19e" stroke="#b2a756" stroke-miterlimit="10"/>
      <path d="M233.5,141.5s-56.5,11.3-67.6,22.4c-17.5,17.4-46.4,69-44.3,79.9,4.1,21.1,48.1,35.2,51,48.3,7.3,32.4,129.4-152.5,129.4-152.5Z" transform="translate(-56.8 -11.7)" stroke="#d19766" stroke-miterlimit="10" fill="url(#radial-gradient-16)"/>
      <path d="M171.8,177.3c-1.4,8.8-2.3,17.6-2.9,26.5s-.9,17.7-.6,26.6a150.2,150.2,0,0,0,2.8,26.2,77.5,77.5,0,0,0,3.6,12.4,38.5,38.5,0,0,0,6.2,10.7l-4.7,3.7a44.1,44.1,0,0,1-6.4-12.7,82.3,82.3,0,0,1-3.1-13.4,125.5,125.5,0,0,1-1.3-13.5c-.2-4.5-.2-9-.1-13.5.2-9,1-17.9,2.1-26.7S169.9,186,171.8,177.3Z" transform="translate(-56.8 -11.7)" fill="#d19766"/>
      <polygon points="96.3 204.4 112.3 220.8 107.5 224.4 96.3 204.4" fill="#d19766"/>
      <path d="M174.1,362.6s63.6-43.6,78.7-89.1c6.4-19.2,47.7-60.5,47.7-60.5l28.1-51.1-160,189.2Z" transform="translate(-56.8 -11.7)" fill="#42210b" opacity="0.2"/>
      <path d="M287.6,141.7s-2.6,7.8-19.1,18.9c-39.1,26.3-115.2,74.6-123.3,105.2l7.9,12.1s-16.9,15.5-11.8,20.2,7.6-4.7,14.5,9.6-22.9,24.6,12.7,50.4c11.3,8.2,163.7-201,163.7-201l-4.9-4.1s1.7.2,1.4-2.1C327.7,143.9,300.4,134.4,287.6,141.7Z" transform="translate(-56.8 -11.7)" fill="#ff8a00" stroke="#d37107" stroke-miterlimit="10" stroke-width="2.25"/>
      <polygon points="200.9 169.6 92.5 260.3 96.3 266.2 200.9 169.6" fill="#42210b" opacity="0.2"/>
      <path d="M197.5,258.7l-47.7,38.6s12.3,7.5,5.9,25.8S197.5,258.7,197.5,258.7Z" transform="translate(-56.8 -11.7)" fill="#42210b" opacity="0.2"/>
      <path d="M153.1,277.9" transform="translate(-56.8 -11.7)" fill="none"/>
      <path d="M237.6,196.7" transform="translate(-56.8 -11.7)" fill="none"/>
      <polygon points="271.3 142.1 213.9 204.4 269.6 140.5 271.3 142.1" fill="#d37107"/>
      <polygon points="90.9 286.8 134.3 252.2 92.4 288.5 90.9 286.8" fill="#d37107"/>
      <path d="M154.5,323.5a9,9,0,0,0-.3,2.9,2.2,2.2,0,0,0,1,1.9,4.3,4.3,0,0,0,2.6,0,18.1,18.1,0,0,0,3-1.1,66.5,66.5,0,0,0,11.1-7.2l5.2-4.2,5.1-4.4q5-4.5,9.9-9.1c6.5-6.2,12.8-12.5,19-19s12.4-13,18.5-19.5c-6,6.7-11.9,13.4-18.1,19.9s-12.3,13.1-18.7,19.4q-4.8,4.7-9.7,9.3l-5,4.5-5.2,4.3a68,68,0,0,1-11.3,7.7,20,20,0,0,1-3.3,1.3,6.2,6.2,0,0,1-4-.1,3.7,3.7,0,0,1-1.7-1.6,5.5,5.5,0,0,1-.6-2,11,11,0,0,1,.3-3.8Z" transform="translate(-56.8 -11.7)" fill="#d37107"/>
      <path d="M207.3,147.6s9.9,22.8,64.2,16,52.2-20.5,37.8-23.4C283.4,135,207.3,147.6,207.3,147.6Z" transform="translate(-56.8 -11.7)" fill="#42210b" opacity="0.2"/>
      <path d="M304,281.1c1.4-3.4-11.9-9.1-13.7-5.1s-.4,20.6,14.2,11.1l.4-3.4s-5.2,1.2-6.3-1.9S303.5,282.4,304,281.1Z" transform="translate(-56.8 -11.7)" fill="#e8e19e" stroke="#b2a756" stroke-miterlimit="10"/>
      <path d="M307.4,284.3c1.3,3.8,12.9,2.8,13.5-2s-4.8-20.3-15.4-3.6l.5,3.5s4.3-3.8,6.1-1.4S305.9,279.8,307.4,284.3Z" transform="translate(-56.8 -11.7)" fill="#e8e19e" stroke="#b2a756" stroke-miterlimit="10"/>
      <path d="M301,276s5.5,8.2,0,13.1c0,0,5.3,4.8,8.1-1.7,0,0,2-8.7-2.4-12.8S301,276,301,276Z" transform="translate(-56.8 -11.7)" fill="#e8e19e" stroke="#b2a756" stroke-miterlimit="10"/>
    </g>
    <g id="fej1">
      <g>
        <circle cx="193.4" cy="100.5" r="16" transform="translate(30.3 279.1) rotate(-88.3)" fill="none" stroke="#d19766" stroke-miterlimit="10" stroke-width="2.23"/>
        <circle cx="193.4" cy="100.5" r="16" transform="translate(30.3 279.1) rotate(-88.3)" fill="url(#radial-gradient-17)"/>
      </g>
      <g>
        <path d="M318.6,75.8c-4.2-1.7-8.9-.6-12.9,2.3.6-1.2,2.5-2.8,2.5-2.4s-3-24.3-3.6-27.1c-5-24.4-27.4-34.6-54.6-35.4-12.9-.4-48.1-.4-62.5,33.3-4.3,10,1,25.4.9,29.1-.2,6-5.9,29.8-4.6,41.5,2.8,24,25.3,39.5,45.8,39.5,22.6,0,74.3-15.1,75.1-46.7l.4.2c7.4,2.9,16.4-2.4,20.2-11.9S326,78.7,318.6,75.8Z" transform="translate(-56.8 -11.7)" fill="none" stroke="#d19766" stroke-miterlimit="10" stroke-width="2.25"/>
        <path d="M318.6,75.8c-4.2-1.7-8.9-.6-12.9,2.3.6-1.2,2.5-2.8,2.5-2.4s-3-24.3-3.6-27.1c-5-24.4-27.4-34.6-54.6-35.4-12.9-.4-48.1-.4-62.5,33.3-4.3,10,1,25.4.9,29.1-.2,6-5.9,29.8-4.6,41.5,2.8,24,25.3,39.5,45.8,39.5,22.6,0,74.3-15.1,75.1-46.7l.4.2c7.4,2.9,16.4-2.4,20.2-11.9S326,78.7,318.6,75.8Z" transform="translate(-56.8 -11.7)" fill="url(#radial-gradient-18)"/>
      </g>
      <g>
        <g>
          <path d="M198.9,112.8c.4.1,20.4,9.3,59.6-11.1" transform="translate(-56.8 -11.7)" fill="none" stroke="#d19766" stroke-linecap="round" stroke-linejoin="round" stroke-width="1.12"/>
          <path d="M252.1,101.3l1.6-.6,1.7-.3a10.6,10.6,0,0,1,3.4.1,7.4,7.4,0,0,1,3.2,1.4,5.1,5.1,0,0,1,1.9,2.8,8.3,8.3,0,0,0-5.3-3.2,17.6,17.6,0,0,0-3.1-.3h-3.3Z" transform="translate(-56.8 -11.7)" fill="#d19766"/>
          <path d="M197.9,115.4a7.9,7.9,0,0,1-.3-1.1,5.5,5.5,0,0,1,0-1.2,3.3,3.3,0,0,1,1.1-2.2,3.6,3.6,0,0,1,2.3-.8,4.2,4.2,0,0,1,2.2.6,6.7,6.7,0,0,0-3.7,1.1,3.4,3.4,0,0,0-1,1.5c-.1.3-.2.6-.3,1A10.3,10.3,0,0,1,197.9,115.4Z" transform="translate(-56.8 -11.7)" fill="#d19766"/>
          <path d="M212.5,125.5s19.5-.3,24-1.9C236.4,123.7,220.1,132.6,212.5,125.5Z" transform="translate(-56.8 -11.7)" fill="#d19766"/>
        </g>
        <ellipse cx="203.4" cy="109.9" rx="4.9" ry="7.3" transform="translate(-58.4 205.1) rotate(-55.9)" opacity="0.3" fill="url(#radial-gradient-19)"/>
      </g>
      <ellipse cx="220.5" cy="95.1" rx="34" ry="12.3" transform="translate(-62.4 2.4) rotate(-3.6)" opacity="0.6" fill="url(#radial-gradient-20)"/>
      <path d="M211.4,79.1s-4.2,16.2-17.7,15.2c-5.9-.4-7-7-7-7a118.3,118.3,0,0,0,1.6-11.7s-1.5-9-2.3-15.5a8,8,0,0,1,6.4-8.8c4.6-1,10.8,1.2,14.8,3.9C209.2,56.6,214.4,68.7,211.4,79.1Z" transform="translate(-56.8 -11.7)" opacity="0.7" fill="url(#linear-gradient)"/>
      <path d="M226,87.2c2.1,12.7-11.2,25.4-29.8,28.5a48,48,0,0,1-12.5.4s.5-14,1.4-18.5a200.6,200.6,0,0,0,3.6-27.8C207.1,66.7,223.9,74.5,226,87.2Z" transform="translate(-56.8 -11.7)" opacity="0.2" fill="url(#radial-gradient-21)"/>
      <path d="M222.6,96.1s4.4-5.1,5.8-2.7-2.6,1.5-3.6,1.7A13.2,13.2,0,0,0,222.6,96.1Z" transform="translate(-56.8 -11.7)" fill="url(#linear-gradient-2)"/>
      <path d="M283,75.9c-4.6,6.1-19.1,16.7-35.4,9.6s-41.2,9-36.9-2.8c6.8-18.4-7.1-29.4-3.5-27.4,19.8,11,31.3-4.2,44.9-8.5,7.6-2.4,24-1.1,28.7,9.6C283.7,63,283.7,74.9,283,75.9Z" transform="translate(-56.8 -11.7)" opacity="0.7" fill="url(#linear-gradient-3)"/>
      <g mask="url(#mask)">
        <g>
          <g>
            <path d="M213.6,68.9c2.5,5.8-.9,12-7,13.8-10.8,3.2-12.5-6.5-11.9-11.7l5.5-3.2C207.5,63.4,213.6,68.9,213.6,68.9Z" transform="translate(-56.8 -11.7)" fill="none" stroke="#b3b3b3" stroke-miterlimit="10" stroke-width="1.12"/>
            <path d="M213.6,68.9c2.5,5.8-.9,12-7,13.8-10.8,3.2-12.5-6.5-11.9-11.7l5.5-3.2C207.5,63.4,213.6,68.9,213.6,68.9Z" transform="translate(-56.8 -11.7)" fill="url(#radial-gradient-22)"/>
          </g>
          <g>
            <path d="M214.6,73.1a8.1,8.1,0,1,1-10.1-5.4A8.1,8.1,0,0,1,214.6,73.1Z" transform="translate(-56.8 -11.7)"/>
            <path d="M214,73.2a7.5,7.5,0,1,1-9.3-5A7.5,7.5,0,0,1,214,73.2Z" transform="translate(-56.8 -11.7)" fill="url(#radial-gradient-23)"/>
            <path d="M204.7,68.1a7.5,7.5,0,1,0,9.4,5.1A7.5,7.5,0,0,0,204.7,68.1Zm8.5,7.6c.8,2.7-1.1,5.7-4.4,6.7s-6.5-.5-7.3-3.2,1.1-5.7,4.4-6.7S212.4,73,213.2,75.7Z" transform="translate(-56.8 -11.7)" fill="url(#radial-gradient-24)"/>
            <circle cx="206.8" cy="75.4" r="4.5" transform="matrix(0.96, -0.29, 0.29, 0.96, -69.73, 50.7)"/>
            <path d="M211.2,70.5c.6,2-1.4,4.3-4.3,5.1s-5.8-.1-6.3-2.1,1.4-4.3,4.3-5.1S210.6,68.5,211.2,70.5Z" transform="translate(-56.8 -11.7)" fill="#fff" fill-rule="evenodd" opacity="0.35"/>
            <path d="M203.4,73.9a1.6,1.6,0,1,1-1.9-1A1.6,1.6,0,0,1,203.4,73.9Z" transform="translate(-56.8 -11.7)" fill="#fff"/>
          </g>
          <path d="M193.4,82.4s8.1,3.8,19.3-2.1l-1.1,4.3C208.3,89,194.3,95,193.4,82.4Z" transform="translate(-56.8 -11.7)" fill="url(#linear-gradient-4)"/>
          <path d="M191.7,82.7h9.7l2.2-.2,2.2-.3,2.1-.5,1.9-.6,1.7-.6,1.4-.7,1-.6.9-.5-.7.7-.9.8-1.3.9-1.6.8-1.9.7-2.1.6-2.2.4-2.3.2h-2.2l-3.9-.4-2.7-.6Z" transform="translate(-56.8 -11.7)" fill="#d19766"/>
        </g>
      </g>
      <path d="M206.9,54.4l1.2,1.6a29.1,29.1,0,0,1,2.6,4.7,27.8,27.8,0,0,1,2.1,7.3,26.2,26.2,0,0,1-.3,8.7,30.8,30.8,0,0,1-1.2,4.3,36.1,36.1,0,0,1-1.7,3.9l-1,1.8-.5.8v.2h-.1v.4a10.9,10.9,0,0,0,0,3.4,8,8,0,0,0,.9,2.8,5.3,5.3,0,0,0,1.5,1.7l1.3.7.5.2h-.5a5.7,5.7,0,0,1-1.4-.6,5.6,5.6,0,0,1-1.7-1.6,7.9,7.9,0,0,1-1.2-2.8,11.5,11.5,0,0,1-.2-3.7,3.3,3.3,0,0,1,.1-.5h.1v-.2l.5-.9.9-1.8a32.9,32.9,0,0,0,2.7-8,28.4,28.4,0,0,0,.5-4.3,28.9,28.9,0,0,0-.1-4.2,30.4,30.4,0,0,0-1.7-7.2,36.8,36.8,0,0,0-2.2-4.8Z" transform="translate(-56.8 -11.7)" fill="#d19766"/>
      <path d="M208.6,87.8a61.2,61.2,0,0,1,19.2-1.3s5.1-11.4,5.7-32.8l-26,.7C220.2,74.3,208.6,87.8,208.6,87.8Z" transform="translate(-56.8 -11.7)" fill="url(#linear-gradient-5)"/>
      <g mask="url(#mask-2)">
        <g>
          <g>
            <path d="M269.6,69.6c-1.7,7.5-6.7,13.8-14.4,13.6s-13.4-7.6-13.6-15.3c0,0,5.9-7.4,13.6-6.7S270.3,66.8,269.6,69.6Z" transform="translate(-56.8 -11.7)" fill="none" stroke="#b3b3b3" stroke-miterlimit="10" stroke-width="1.12"/>
            <path d="M269.6,69.6c-1.7,7.5-6.7,13.8-14.4,13.6s-13.4-7.6-13.6-15.3c0,0,5.9-7.4,13.6-6.7S270.3,66.8,269.6,69.6Z" transform="translate(-56.8 -11.7)" fill="url(#radial-gradient-25)"/>
          </g>
          <g>
            <path d="M267,72.2a9.7,9.7,0,1,1-8.2-11.1A9.7,9.7,0,0,1,267,72.2Z" transform="translate(-56.8 -11.7)"/>
            <path d="M266.3,72.1a9,9,0,1,1-7.6-10.3A9,9,0,0,1,266.3,72.1Z" transform="translate(-56.8 -11.7)" fill="url(#radial-gradient-26)"/>
            <path d="M258.7,61.8a9.1,9.1,0,1,0,7.7,10.3A9.1,9.1,0,0,0,258.7,61.8Zm5.4,12.6c-.5,3.4-4.1,5.7-8.2,5.1s-6.9-3.8-6.3-7.2,4.2-5.7,8.2-5.1S264.6,71.1,264.1,74.5Z" transform="translate(-56.8 -11.7)" fill="url(#radial-gradient-27)"/>
            <path d="M262.7,71.6a5.5,5.5,0,1,1-4.6-6.2A5.5,5.5,0,0,1,262.7,71.6Z" transform="translate(-56.8 -11.7)"/>
            <path d="M264.5,67.7c-.4,2.5-3.7,4-7.3,3.4s-6.3-3.1-5.9-5.5,3.7-4,7.3-3.4S264.9,65.3,264.5,67.7Z" transform="translate(-56.8 -11.7)" fill="#fff" fill-rule="evenodd" opacity="0.35"/>
            <path d="M254.3,67.4a1.9,1.9,0,1,1-1.6-2.1A1.9,1.9,0,0,1,254.3,67.4Z" transform="translate(-56.8 -11.7)" fill="#fff"/>
          </g>
        </g>
      </g>
      <path d="M240.1,69.1a10.6,10.6,0,0,1,.9-1.4,18.9,18.9,0,0,1,2.9-3.1,18.3,18.3,0,0,1,5.2-3.1,16.3,16.3,0,0,1,3.3-.9,17.6,17.6,0,0,1,3.6-.2l1.8.2,1.7.3,1.7.5,1.6.6a23,23,0,0,1,2.9,1.4l2.4,1.5,1.9,1.4,1.4,1.2,1.2,1.1-1.3-.9-1.5-1-2-1.2L265.3,64l-1.4-.6-1.5-.6-1.6-.5-1.6-.4-1.7-.3-1.7-.2a16.5,16.5,0,0,0-3.4.2,17.2,17.2,0,0,0-3.2.8,19.1,19.1,0,0,0-5.2,2.7,23.1,23.1,0,0,0-3.1,2.8Z" transform="translate(-56.8 -11.7)" fill="#d19766"/>
      <path d="M240.8,60.9l1.1-1.1a20.1,20.1,0,0,1,3.3-2.5,19.9,19.9,0,0,1,5.4-2.3,17.2,17.2,0,0,1,3.3-.5,18.8,18.8,0,0,1,3.5.2l1.7.3,1.6.5a20.8,20.8,0,0,1,3.1,1.3,24.7,24.7,0,0,1,2.6,1.6l2.2,1.7.9.8.8.8,1.2,1.3,1,1.2-1.2-1-1.3-1.2-1.8-1.4-2.2-1.5-2.6-1.4-2.9-1.2-1.6-.4-1.6-.3a17.7,17.7,0,0,0-3.2-.2,18.6,18.6,0,0,0-3.1.4,21.1,21.1,0,0,0-5.3,1.8A25.3,25.3,0,0,0,242,60Z" transform="translate(-56.8 -11.7)" fill="#d19766"/>
      <path d="M190.3,75.7l.6-.9a26.4,26.4,0,0,1,1.8-2.3,22.7,22.7,0,0,1,7.2-5.5l2.3-.9,2.4-.4h2.3l2,.4,1.6.6,1.1.7.9.7-1-.5-1.2-.5-1.6-.4h-4l-2.2.5-2.2.9L198.3,69l-1.9,1.3a38.6,38.6,0,0,0-3.2,2.6l-2.1,2Z" transform="translate(-56.8 -11.7)" fill="#d19766"/>
      <path d="M191.7,69.4l.5-.9a20,20,0,0,1,1.6-2.1l1.2-1.3,1.5-1.3,1.8-1.2,2-.9a11.5,11.5,0,0,1,2.2-.5h3.2l1,.2.9.2.8.3,1.4.7,1,.6.8.6-.9-.4-1-.5-1.4-.4-.8-.2h-3.7l-1,.2a10.6,10.6,0,0,0-2,.5l-1.9.8-1.7,1-1.5,1.1-1.3,1.1-1.1,1-.8.8Z" transform="translate(-56.8 -11.7)" fill="#d19766"/>
      <path d="M222.9,95.8s3.8-3.6,5-2-2.2,1-3,1.1A11.1,11.1,0,0,0,222.9,95.8Z" transform="translate(-56.8 -11.7)" fill="url(#radial-gradient-28)"/>
      <path d="M209.7,95.4c.2,1.9,4.4,1.2,4.4,1.2S209.3,92.1,209.7,95.4Z" transform="translate(-56.8 -11.7)" fill="url(#linear-gradient-6)"/>
      <path d="M210.2,95.4c.2,1.8,3.9,1.1,3.9,1.1S209.8,92.3,210.2,95.4Z" transform="translate(-56.8 -11.7)" fill="url(#radial-gradient-29)"/>
      <path d="M240.8,74.8s14.4,11.2,30.9-2.5c0,0-2.8,10-12.5,12.1C247.9,86.7,242.1,79.3,240.8,74.8Z" transform="translate(-56.8 -11.7)" fill="url(#linear-gradient-7)"/>
      <path d="M240.1,74.3l.3.2.9.6,1.5.8,2,.9,2.5.9a28.4,28.4,0,0,0,2.9.6l1.5.2h4.8l3.2-.6,3-.9,2.7-1.1,2.3-1.3,1-.6.9-.6,1.5-1,1.3-.8-1.2,1-1.3,1.1-.8.7-1,.6-2.3,1.4-2.7,1.3L260,78.9l-3.3.7h-5l-1.6-.3a20.2,20.2,0,0,1-2.9-.8l-2.5-1.1-2-1.1-1.4-1Z" transform="translate(-56.8 -11.7)" fill="#d19766"/>
      <path d="M319.4,84.3a1.6,1.6,0,0,0-.1-.4,2.5,2.5,0,0,0-.5-.9,5.6,5.6,0,0,0-3.2-1.8,6.6,6.6,0,0,0-5,.9,7.2,7.2,0,0,0-2,2.1,11.1,11.1,0,0,0-1.3,2.8,17.4,17.4,0,0,0-.6,3,29.5,29.5,0,0,0-.2,3,18.4,18.4,0,0,0,.2,2.8,10.6,10.6,0,0,0,.6,2.4,6.8,6.8,0,0,0,1,1.8,4.9,4.9,0,0,0,1.2,1.1l.5.3.4.2h0l-1.1-.3a5.3,5.3,0,0,1-1.4-1,6.9,6.9,0,0,1-1.3-1.9,12.9,12.9,0,0,1-1.1-5.5,23,23,0,0,1,.2-3.2,18.5,18.5,0,0,1,.7-3.2,11.4,11.4,0,0,1,1.5-3,7.6,7.6,0,0,1,2.4-2.2,6.8,6.8,0,0,1,2.9-.9,7.4,7.4,0,0,1,2.7.3,6,6,0,0,1,3.3,2.2,2.5,2.5,0,0,1,.4,1A1.6,1.6,0,0,1,319.4,84.3Z" transform="translate(-56.8 -11.7)" fill="#d19766"/>
      <path d="M306.3,92H310l1.3.3,1.3.5,1.3.7.6.4.5.5a5.5,5.5,0,0,1,.8,1.1l.3.6.2.6a5.2,5.2,0,0,1,.3,1.1,5,5,0,0,1,.1,1v0a4.8,4.8,0,0,0-.2-.9,5,5,0,0,0-.4-1.1l-.3-.6-.3-.6a5.1,5.1,0,0,0-.9-1l-.5-.5-.6-.4-1.2-.6-1.3-.3-1.2-.2h-1.1a12.5,12.5,0,0,0-2.3.2Z" transform="translate(-56.8 -11.7)" fill="#d19766"/>
      <path d="M217.8,35.3c-1.4,0-2.6.9-2.7,1.9s1,1.8,2.4,1.7,2.5-1,2.6-1.9S219.2,35.2,217.8,35.3Zm1.4-6.3a2.9,2.9,0,0,0-3,1.8c-.3,1,.7,1.9,2,1.8a2.9,2.9,0,0,0,2.9-1.8C221.3,29.8,220.5,29,219.1,28.9Zm2.5-6.3a3.3,3.3,0,0,0-3.2,1.6c-.5,1,.3,1.9,1.7,2a3.3,3.3,0,0,0,3.1-1.6C223.7,23.7,223,22.8,221.7,22.7Zm3.8-4.9a3.6,3.6,0,0,0-3.5,1.4c-.6,1-.1,2,1.2,2.1a3.7,3.7,0,0,0,3.4-1.4C227.3,18.9,226.8,18,225.5,17.7Zm5.3,17.1c-1.4,0-2.6.8-2.6,1.7s1.1,1.5,2.4,1.4,2.5-.9,2.5-1.7S232.2,34.8,230.9,34.8Zm1.2-5.4c-1.4-.1-2.7.6-2.9,1.5s.7,1.6,2.1,1.6,2.6-.7,2.8-1.5S233.4,29.5,232,29.4Zm2.2-5.4a3.2,3.2,0,0,0-3.1,1.3c-.4.9.4,1.7,1.8,1.7a3.2,3.2,0,0,0,3-1.3C236.2,24.9,235.5,24.2,234.2,24Zm1.2-2.3a3.5,3.5,0,0,0,3.2-1.1c.5-.8,0-1.6-1.3-1.9a3.4,3.4,0,0,0-3.3,1.1C233.5,20.7,234.2,21.6,235.4,21.7Z" transform="translate(-56.8 -11.7)" fill="#c69c6d" opacity="0.3" style="mix-blend-mode: multiply"/>
      <path d="M184.9,60.2a7.4,7.4,0,0,1,0-1.2,10.2,10.2,0,0,1,.2-1.3,10.8,10.8,0,0,1,.5-1.7l.5-.9.6-1a11.1,11.1,0,0,1,1.6-1.9l1.1-.8.6-.4.6-.3,1.3-.6,1.3-.4a15.1,15.1,0,0,1,2.7-.6,16.8,16.8,0,0,1,2.6-.2H201l2.2.2,1.8.3,1.4.2,1.2.2a3,3,0,1,1-1,6l-.6-.2h-.2l-1-.4-1.2-.5-1.5-.6-1.8-.6-1-.3-1-.2a13.6,13.6,0,0,0-2.2-.3,12.1,12.1,0,0,0-2.3,0h-1.1l-1.1.3H191l-.5.2-1,.4a9.5,9.5,0,0,0-1.7,1.2l-.7.7-.6.7a10,10,0,0,0-.8,1.4,9.7,9.7,0,0,0-.5,1.2A7.4,7.4,0,0,0,184.9,60.2Z" transform="translate(-56.8 -11.7)" fill="#8c6239"/>
      <path d="M279.4,58.4a15.3,15.3,0,0,0-1.2-1.7,21.1,21.1,0,0,0-1.6-1.7l-1.1-1-1.3-1-1.4-1-1.6-1-1.7-.9-1.9-.7-1-.3-1-.3-2.1-.5-2.2-.3h-2.2a26.1,26.1,0,0,0-4.3.2,26.9,26.9,0,0,0-4.1.7l-2,.5-1.9.5-3.3,1.2a21.6,21.6,0,0,0-2.8,1.1l-2.1,1-1.8.8h-.2a3,3,0,1,1-2.5-5.5h.3l2.1-.7,2.4-.7a24.6,24.6,0,0,1,3.1-.9l3.8-.8,2.1-.3,2.2-.2a30.4,30.4,0,0,1,4.6-.2,29.3,29.3,0,0,1,4.7.4l1.2.2,1.2.3,2.3.6,2.2.8,1.1.4,1,.5,1.9,1,1.7,1.2,1.5,1.2,1.4,1.2,1.2,1.2,1,1.1a21.7,21.7,0,0,1,1.4,2A15.3,15.3,0,0,1,279.4,58.4Z" transform="translate(-56.8 -11.7)" fill="#8c6239"/>
    </g>
    <g id="fej3">
      <g>
        <circle cx="290" cy="92.3" r="16" transform="translate(-68.9 43.5) rotate(-10.6)" fill="none" stroke="#d19766" stroke-miterlimit="10" stroke-width="2.23"/>
        <circle cx="290" cy="92.3" r="16" transform="translate(-68.9 43.5) rotate(-10.6)" fill="url(#radial-gradient-30)"/>
      </g>
      <path d="M301.3,86.9a7.5,7.5,0,0,0-2.4-3.4,5.8,5.8,0,0,0-3.8-1.2,6.1,6.1,0,0,0-3.6,1.5,11.7,11.7,0,0,0-2.5,3.2l-.9,1.9a7.5,7.5,0,0,0-.6,1.9,4.8,4.8,0,0,0,1.1,3.6,13.1,13.1,0,0,0,3.1,2.7,36.1,36.1,0,0,0,3.7,2.1,16,16,0,0,1-7.5-4.3,6.6,6.6,0,0,1-1.2-2,5.2,5.2,0,0,1-.2-2.4,7.5,7.5,0,0,1,.7-2.2l1-2a11.8,11.8,0,0,1,2.9-3.4,6.7,6.7,0,0,1,4.2-1.5,6.2,6.2,0,0,1,4.1,1.7A7.2,7.2,0,0,1,301.3,86.9Z" transform="translate(-56.8 -11.7)" fill="#d19766"/>
      <g>
        <path d="M162.6,87.2c3.9-2.3,8.7-2,13.1.2-.7-1-2.9-2.3-2.9-2s-.8-24.5-.6-27.3c1.2-24.8,21.7-38.4,48.4-43.4,12.6-2.4,47.5-7.8,66.9,23.3,5.8,9.3,2.9,25.2,3.6,28.9,1.1,5.9,10.5,28.6,10.9,40.3,1,24.1-18.9,42.9-39.1,46.1-22.3,3.5-75.8-3.4-81.4-34.5l-.4.3c-6.9,4-16.6.2-21.8-8.6S155.7,91.2,162.6,87.2Z" transform="translate(-56.8 -11.7)" fill="none" stroke="#d19766" stroke-miterlimit="10" stroke-width="2.25"/>
        <path d="M162.6,87.2c3.9-2.3,8.7-2,13.1.2-.7-1-2.9-2.3-2.9-2s-.8-24.5-.6-27.3c1.2-24.8,21.7-38.4,48.4-43.4,12.6-2.4,47.5-7.8,66.9,23.3,5.8,9.3,2.9,25.2,3.6,28.9,1.1,5.9,10.5,28.6,10.9,40.3,1,24.1-18.9,42.9-39.1,46.1-22.3,3.5-75.8-3.4-81.4-34.5l-.4.3c-6.9,4-16.6.2-21.8-8.6S155.7,91.2,162.6,87.2Z" transform="translate(-56.8 -11.7)" fill="url(#radial-gradient-31)"/>
      </g>
      <g>
        <g>
          <g>
            <path d="M285.5,105.7c-.4.2-18.7,12.3-60.6-1.7" transform="translate(-56.8 -11.7)" fill="none" stroke="#d19766" stroke-linecap="round" stroke-linejoin="round" stroke-width="1.12"/>
            <path d="M231.2,102.5l-1.6.2-1.6.2a17.6,17.6,0,0,0-3,.8,8.3,8.3,0,0,0-4.7,3.9,5.1,5.1,0,0,1,1.4-3.1,7.4,7.4,0,0,1,2.9-1.9,10.6,10.6,0,0,1,3.4-.6h1.7Z" transform="translate(-56.8 -11.7)" fill="#d19766"/>
            <path d="M287,108.1l-.4-1-.4-.9a3.4,3.4,0,0,0-1.2-1.3,6.7,6.7,0,0,0-3.9-.5,4.2,4.2,0,0,1,2.1-.9,3.6,3.6,0,0,1,2.4.4,3.3,3.3,0,0,1,1.4,2,5.5,5.5,0,0,1,.2,1.1A7.9,7.9,0,0,1,287,108.1Z" transform="translate(-56.8 -11.7)" fill="#d19766"/>
          </g>
          <path d="M274.1,120.4s-19.3,2.7-24,1.9C250.1,122.2,267.7,128.6,274.1,120.4Z" transform="translate(-56.8 -11.7)" fill="#d19766"/>
        </g>
        <ellipse cx="283.9" cy="105.3" rx="7.3" ry="4.9" transform="translate(-52.4 210.2) rotate(-43)" opacity="0.3" fill="url(#radial-gradient-32)"/>
      </g>
      <path d="M268.9,73.9s6.7,15.4,19.8,12.3c5.8-1.3,5.8-8,5.8-8a118.3,118.3,0,0,1-3.4-11.4s.1-9.1-.1-15.7a8,8,0,0,0-7.7-7.7c-4.7-.3-10.4,2.9-14,6.2C267.7,51.3,264.4,64.1,268.9,73.9Z" transform="translate(-56.8 -11.7)" opacity="0.7" fill="url(#linear-gradient-8)"/>
      <path d="M197.7,81.8c5.5,5.3,21.4,13.6,36.5,4s42.1,2.5,36-8.5c-9.6-17.1,2.5-30.2-.8-27.6-17.9,14-31.6.7-45.7-1.4-7.9-1.2-23.8,2.6-26.9,14C195,69.1,196.9,81,197.7,81.8Z" transform="translate(-56.8 -11.7)" opacity="0.7" fill="url(#linear-gradient-9)"/>
      <g mask="url(#mask-3)">
        <g>
          <g>
            <path d="M265.2,64.1c-1.6,6.1,2.7,11.8,9,12.6,11.2,1.5,11.4-8.3,10-13.5l-5.9-2.3C270.4,57.8,265.2,64.1,265.2,64.1Z" transform="translate(-56.8 -11.7)" fill="none" stroke="#b3b3b3" stroke-miterlimit="10" stroke-width="1.12"/>
            <path d="M265.2,64.1c-1.6,6.1,2.7,11.8,9,12.6,11.2,1.5,11.4-8.3,10-13.5l-5.9-2.3C270.4,57.8,265.2,64.1,265.2,64.1Z" transform="translate(-56.8 -11.7)" fill="url(#radial-gradient-33)"/>
          </g>
          <g>
            <path d="M264.9,68.4a8.1,8.1,0,1,0,9.1-6.9A8.1,8.1,0,0,0,264.9,68.4Z" transform="translate(-56.8 -11.7)"/>
            <path d="M265.5,68.5a7.5,7.5,0,1,0,8.4-6.4A7.5,7.5,0,0,0,265.5,68.5Z" transform="translate(-56.8 -11.7)" fill="url(#radial-gradient-34)"/>
            <path d="M265.4,68.5a7.5,7.5,0,1,0,8.5-6.5A7.5,7.5,0,0,0,265.4,68.5Zm8-1.9c3.3.5,5.7,3.1,5.3,5.9s-3.4,4.7-6.7,4.3-5.7-3.1-5.3-5.9S270.1,66.1,273.4,66.6Z" transform="translate(-56.8 -11.7)" fill="url(#radial-gradient-35)"/>
            <circle cx="272.9" cy="69.5" r="4.5" transform="translate(110.5 318.9) rotate(-82.3)"/>
            <path d="M267.9,65.4c-.2,2.1,2,4,5.1,4.4s5.7-1,5.9-3-2-4-5-4.4S268.1,63.3,267.9,65.4Z" transform="translate(-56.8 -11.7)" fill="#fff" fill-rule="evenodd" opacity="0.35"/>
            <path d="M276.1,67.5a1.6,1.6,0,1,0,1.8-1.3A1.6,1.6,0,0,0,276.1,67.5Z" transform="translate(-56.8 -11.7)" fill="#fff"/>
          </g>
          <path d="M287.3,74.4s-7.4,5-19.4.9l1.8,4.1C273.5,83.1,288.4,87,287.3,74.4Z" transform="translate(-56.8 -11.7)" fill="url(#linear-gradient-10)"/>
          <path d="M289,74.4a28.2,28.2,0,0,1-5.7,2,30.7,30.7,0,0,1-6,.9,23.2,23.2,0,0,1-6.1-.5,14.5,14.5,0,0,1-5.5-2.6,21.5,21.5,0,0,0,5.6,1.8,31.9,31.9,0,0,0,5.9.3,49.6,49.6,0,0,0,5.9-.6Z" transform="translate(-56.8 -11.7)" fill="#d19766"/>
        </g>
      </g>
      <path d="M269.6,48.8a37.8,37.8,0,0,0-1.8,5.6,29.8,29.8,0,0,0-.9,5.7,28.2,28.2,0,0,0,1.6,11.3,35.1,35.1,0,0,0,5.7,10h.1v.2l.2.4.2.7a12,12,0,0,1,.2,1.5,9.9,9.9,0,0,1-.2,3,6.5,6.5,0,0,1-1.3,2.7,5.4,5.4,0,0,1-2.4,1.7,5.6,5.6,0,0,0,2.2-1.8,6.2,6.2,0,0,0,1-2.6,10.7,10.7,0,0,0,0-2.8,11.3,11.3,0,0,0-.3-1.4,2.6,2.6,0,0,0-.5-1.2,31,31,0,0,1-6.2-10.1A26.2,26.2,0,0,1,266,60a30.5,30.5,0,0,1,1.2-5.8A30.9,30.9,0,0,1,269.6,48.8Z" transform="translate(-56.8 -11.7)" fill="#d19766"/>
      <path d="M273.1,82a61.2,61.2,0,0,0-19.2,1.7s-6.8-10.5-10.7-31.5L269,48.9C259.6,70.5,273.1,82,273.1,82Z" transform="translate(-56.8 -11.7)" fill="url(#linear-gradient-11)"/>
      <g mask="url(#mask-4)">
        <g>
          <g>
            <path d="M210,73.5c2.9,7.2,8.7,12.6,16.3,11.2s12-9.6,11.1-17.3c0,0-7-6.4-14.5-4.5S208.9,70.9,210,73.5Z" transform="translate(-56.8 -11.7)" fill="none" stroke="#b3b3b3" stroke-miterlimit="10" stroke-width="1.12"/>
            <path d="M210,73.5c2.9,7.2,8.7,12.6,16.3,11.2s12-9.6,11.1-17.3c0,0-7-6.4-14.5-4.5S208.9,70.9,210,73.5Z" transform="translate(-56.8 -11.7)" fill="url(#radial-gradient-36)"/>
          </g>
          <g>
            <path d="M213,75.7a9.7,9.7,0,1,0,6.4-12.2A9.7,9.7,0,0,0,213,75.7Z" transform="translate(-56.8 -11.7)"/>
            <path d="M213.7,75.5a9,9,0,1,0,5.9-11.3A9,9,0,0,0,213.7,75.5Z" transform="translate(-56.8 -11.7)" fill="url(#radial-gradient-37)"/>
            <path d="M213.6,75.5a9.1,9.1,0,1,0,6-11.4A9.1,9.1,0,0,0,213.6,75.5Zm7.7-6.2c3.9-1.2,7.8.5,8.8,3.7s-1.3,6.9-5.2,8.1-7.8-.5-8.8-3.7S217.5,70.5,221.4,69.3Z" transform="translate(-56.8 -11.7)" fill="url(#radial-gradient-38)"/>
            <path d="M217.1,74.4a5.5,5.5,0,1,0,3.6-6.8A5.5,5.5,0,0,0,217.1,74.4Z" transform="translate(-56.8 -11.7)"/>
            <path d="M214.7,70.9c.8,2.4,4.2,3.3,7.7,2.2s5.7-4,4.9-6.4-4.2-3.4-7.7-2.2S213.9,68.5,214.7,70.9Z" transform="translate(-56.8 -11.7)" fill="#fff" fill-rule="evenodd" opacity="0.35"/>
            <path d="M224.7,68.9a1.9,1.9,0,1,0,1.2-2.3A1.9,1.9,0,0,0,224.7,68.9Z" transform="translate(-56.8 -11.7)" fill="#fff"/>
          </g>
        </g>
      </g>
      <path d="M239.1,68.5a20.6,20.6,0,0,0-3.7-2.7,19.2,19.2,0,0,0-4.2-1.9,17.7,17.7,0,0,0-8.9-.5,24.6,24.6,0,0,0-8.3,3.6L212,68.3l-1.8,1.4-1.8,1.5-1.7,1.6a34,34,0,0,1,6.7-6.6,22.3,22.3,0,0,1,8.6-4,16.9,16.9,0,0,1,9.4.8A18.3,18.3,0,0,1,239.1,68.5Z" transform="translate(-56.8 -11.7)" fill="#d19766"/>
      <path d="M237.1,60.5a22.5,22.5,0,0,0-4-1.9,21,21,0,0,0-4.3-1.1,19,19,0,0,0-8.7.6,22.3,22.3,0,0,0-7.6,4.3,41.7,41.7,0,0,0-6.1,6.5l1.2-1.9,1.3-1.8a31.9,31.9,0,0,1,3.1-3.4,22.1,22.1,0,0,1,3.6-2.8,20.8,20.8,0,0,1,4.2-1.9,17.8,17.8,0,0,1,9.1-.3A19.7,19.7,0,0,1,237.1,60.5Z" transform="translate(-56.8 -11.7)" fill="#d19766"/>
      <path d="M289.3,67.2a46.8,46.8,0,0,0-5.4-3.6,26.3,26.3,0,0,0-5.8-2.5,14.1,14.1,0,0,0-6.2-.5,13.6,13.6,0,0,0-5.8,2.5,11.1,11.1,0,0,1,5.6-3.4,12.3,12.3,0,0,1,3.4-.3,15.5,15.5,0,0,1,3.3.6,21.1,21.1,0,0,1,6,2.9A24.4,24.4,0,0,1,289.3,67.2Z" transform="translate(-56.8 -11.7)" fill="#d19766"/>
      <path d="M286.9,61.2a30.1,30.1,0,0,0-4.7-3.2,18.3,18.3,0,0,0-5.2-1.9,11.5,11.5,0,0,0-5.4.2,17.1,17.1,0,0,0-5,2.5,12.2,12.2,0,0,1,4.8-3.3,10.8,10.8,0,0,1,5.9-.5,15.3,15.3,0,0,1,5.4,2.3A17.3,17.3,0,0,1,286.9,61.2Z" transform="translate(-56.8 -11.7)" fill="#d19766"/>
      <path d="M260.2,92.2s-4.4-3-5.3-1.2,2.3.7,3.1.7A11.1,11.1,0,0,1,260.2,92.2Z" transform="translate(-56.8 -11.7)" fill="url(#radial-gradient-39)"/>
      <path d="M272.7,89.8c.1,1.8-3.7,1.7-3.7,1.7S272.6,86.7,272.7,89.8Z" transform="translate(-56.8 -11.7)" fill="url(#radial-gradient-40)"/>
      <path d="M239.3,74.2s-12.5,13.3-30.9,2.3c0,0,4.4,9.5,14.3,10C234.1,87.1,238.6,78.8,239.3,74.2Z" transform="translate(-56.8 -11.7)" fill="url(#linear-gradient-12)"/>
      <path d="M239.9,73.5a18.4,18.4,0,0,1-3.1,3.2,23.1,23.1,0,0,1-3.8,2.4,21.8,21.8,0,0,1-8.7,2.2,26.2,26.2,0,0,1-8.8-1.4l-2.1-.8-2-.9-3.8-2.3,4,1.8,2.1.7,2.1.7,2.1.5,1.1.2h1.1a26.8,26.8,0,0,0,4.3.3,24.4,24.4,0,0,0,8.4-1.9A23.6,23.6,0,0,0,239.9,73.5Z" transform="translate(-56.8 -11.7)" fill="#d19766"/>
      <path d="M163.1,95.8a2.6,2.6,0,0,1,.5-2.1,6.1,6.1,0,0,1,1.6-1.5,7.3,7.3,0,0,1,4.2-1.2,7,7,0,0,1,4.2,1.6,10.7,10.7,0,0,1,2.8,3.5,19.4,19.4,0,0,1,1.5,4.1,18.5,18.5,0,0,1,.6,4.4,10.1,10.1,0,0,1-.9,4.3,5.2,5.2,0,0,1-3.2,2.8,5.4,5.4,0,0,0,2.6-3.1,11,11,0,0,0,.5-4.1,21.4,21.4,0,0,0-.7-4.1,18.5,18.5,0,0,0-1.4-3.9,10,10,0,0,0-2.4-3.2,6.3,6.3,0,0,0-3.6-1.5,7.1,7.1,0,0,0-3.9.9,5.7,5.7,0,0,0-1.6,1.3A2.6,2.6,0,0,0,163.1,95.8Z" transform="translate(-56.8 -11.7)" fill="#d19766"/>
      <path d="M177.1,102.4a12.8,12.8,0,0,0-3.6.4,8.5,8.5,0,0,0-3.3,1.6l-.7.6-.6.7a6.9,6.9,0,0,0-.7,1.7,8,8,0,0,0-.3,1.8c0,.6,0,1.3.1,1.9s-.2-1.3-.2-1.9a8.2,8.2,0,0,1,.2-1.9,7.2,7.2,0,0,1,.7-1.8l.6-.8.7-.7a9.1,9.1,0,0,1,3.4-2,13.6,13.6,0,0,1,3.9-.7Z" transform="translate(-56.8 -11.7)" fill="#d19766"/>
      <path d="M253.8,33.6c.2.9,1.5,1.6,2.8,1.5s2.4-1,2.1-2-1.6-1.7-2.9-1.5S253.6,32.6,253.8,33.6Zm-1.9-5.9a2.9,2.9,0,0,0,3.1,1.3c1.4-.2,2.2-1.2,1.7-2.1a2.9,2.9,0,0,0-3.2-1.3C252.2,25.8,251.5,26.7,251.9,27.6Zm-3.1-5.7a3.3,3.3,0,0,0,3.4,1.1c1.3-.3,1.9-1.3,1.3-2.2a3.3,3.3,0,0,0-3.4-1.1C248.8,20.1,248.3,21.1,248.8,21.9Zm-4.1-4.2a3.7,3.7,0,0,0,3.6.8c1.3-.4,1.7-1.4.9-2.3a3.6,3.6,0,0,0-3.6-.8C244.3,15.9,244,16.9,244.7,17.7Zm-3.9,17.2c.2.8,1.4,1.4,2.8,1.3s2.4-.9,2.2-1.8-1.5-1.4-2.9-1.3S240.6,34.1,240.8,34.9Zm-1.6-5.1c.3.8,1.7,1.3,3,1.1s2.2-1.1,1.8-1.9-1.8-1.3-3.1-1S238.8,29.1,239.1,29.9ZM236.5,25a3.2,3.2,0,0,0,3.2.8c1.3-.3,2-1.2,1.5-2a3.2,3.2,0,0,0-3.3-.8C236.6,23.3,236,24.2,236.5,25Zm.9-6.1a3.4,3.4,0,0,0-3.4-.6c-1.2.4-1.6,1.3-1,2.1a3.5,3.5,0,0,0,3.4.6C237.6,20.6,238.1,19.6,237.4,18.9Z" transform="translate(-56.8 -11.7)" fill="#c69c6d" opacity="0.3" style="mix-blend-mode: multiply"/>
      <path d="M292.2,51.1a9.6,9.6,0,0,0-4-5,9.3,9.3,0,0,0-5.9-1.1h-.8l-.8.2-1.5.3-2.9,1.1-2.8,1.4-2.7,1.6h-.2a3,3,0,1,1-3.1-5.2l.6-.3,3.4-1.1,3.5-.9c1.2-.3,2.4-.3,3.6-.5h3.7a11.5,11.5,0,0,1,6.7,2.9A10.3,10.3,0,0,1,292.2,51.1Z" transform="translate(-56.8 -11.7)" fill="#8c6239"/>
      <path d="M198.6,64a23.9,23.9,0,0,1,6.7-10.2,28.9,28.9,0,0,1,10.9-6.2l3.1-.9,3.1-.5L224,46h4.8l6.3.4,6.3.9a3,3,0,0,1-.9,6h-.6l-5.6-1.6-5.7-1-2.9-.2h-5.8l-2.9.4a26.6,26.6,0,0,0-10.7,4.4A23.2,23.2,0,0,0,198.6,64Z" transform="translate(-56.8 -11.7)" fill="#8c6239"/>
    </g>
  </g>
</svg>
