<svg id="icon" xmlns="http://www.w3.org/2000/svg" preserveAspectRatio="xMinYMin meet" width="50%" height="50%" viewBox="0 0 100 100">
	<defs>
		<style type="text/css">
			.line {
				stroke: #aaa;
				stroke-width: 2;
			}

			#icon:hover .line {
				stroke-width: 2;
				stroke: #F7931E;
				stroke-dasharray: 1200;
				stroke-dashoffset: 0;
				-webkit-animation: dash 2s cubic-bezier(.49,0,1,.57) forwards;
				-o-animation: dash 2s cubic-bezier(.49,0,1,.57) forwards;
				-moz-animation: dash 2s cubic-bezier(.49,0,1,.57) forwards;
				animation: dash 2s cubic-bezier(.49,0,1,.57) forwards;
				animation-iteration-count: 1;
			}

			@-webkit-keyframes dash {
					from{
					stroke-dashoffset: 1200;
					}
					to{
					stroke-dashoffset: 0;
					}
			}
		</style>
	</defs>

	<g class="line">
		<path d="M63.2,66.9l4.1,13.2s1.4,4.6-4.1,4.6H50.8" transform="translate(-5.2 -1.5)" fill="none" stroke-miterlimit="10"/>
		<line x1="45.6" y1="76.2" x2="61.4" y2="76.2" fill="none" stroke-miterlimit="10"/>
		<line x1="44" y1="28.7" x2="53.5" y2="19.2" fill="none" stroke-miterlimit="10"/>
		<line x1="56.7" y1="16" x2="63.1" y2="9.6" fill="none" stroke-miterlimit="10"/>
		<line x1="67.9" y1="16" x2="58.4" y2="25.5" fill="none" stroke-miterlimit="10"/>
		<line x1="55.2" y1="28.7" x2="48.8" y2="35.1" fill="none" stroke-miterlimit="10"/>
		<line x1="16.9" y1="60.4" x2="10.5" y2="66.8" fill="none" stroke-miterlimit="10"/>
		<line x1="29.6" y1="47.7" x2="20.2" y2="57.2" fill="none" stroke-miterlimit="10"/>
		<line x1="17.3" y1="71.3" x2="36.1" y2="52.6" fill="none" stroke-miterlimit="10"/>
		<line x1="77.5" y1="66.9" x2="83.9" y2="60.5" fill="none" stroke-miterlimit="10"/>
		<line x1="82.5" y1="71.8" x2="88.9" y2="65.4" fill="none" stroke-miterlimit="10"/>
		<path d="M46,90.7H11a4.8,4.8,0,0,1-4.8-4.8V38A4.8,4.8,0,0,1,11,33.2H46A4.8,4.8,0,0,1,50.8,38V85.9A4.8,4.8,0,0,1,46,90.7Z" transform="translate(-5.2 -1.5)" fill="none" stroke-miterlimit="10"/>
		<path d="M97,90.7H79.5a4.8,4.8,0,0,1-4.8-4.8V49.3a4.8,4.8,0,0,1,4.8-4.8H97a4.8,4.8,0,0,1,4.8,4.8V85.8A4.9,4.9,0,0,1,97,90.7Z" transform="translate(-5.2 -1.5)" fill="none" stroke-miterlimit="10"/>
		<line x1="1.1" y1="41.4" x2="45.6" y2="41.4" fill="none" stroke-miterlimit="10"/>
		<line x1="1.1" y1="79.5" x2="45.6" y2="79.5" fill="none" stroke-miterlimit="10"/>
		<line x1="45.6" y1="52.6" x2="69.5" y2="52.6" fill="none" stroke-miterlimit="10"/>
		<line x1="69.5" y1="79.5" x2="96.6" y2="79.5" fill="none" stroke-miterlimit="10"/>
		<path d="M12,33.3V8.6s0-6.1,7-6.1H90a6.1,6.1,0,0,1,6.1,6.6V44.6" transform="translate(-5.2 -1.5)" fill="none" stroke-miterlimit="10"/>
		<line x1="45.6" y1="65.4" x2="69.5" y2="65.4" fill="none" stroke-miterlimit="10"/>
		<line x1="69.5" y1="52.6" x2="96.6" y2="52.6" fill="none" stroke-miterlimit="10"/>
	</g>

</svg>
